<svg width="20" height="20" viewBox="0 0 20 20" fill="none" xmlns="http://www.w3.org/2000/svg">
<g clip-path="url(#clip0_210_437)">
<path d="M18.3333 0.833374H8.36417V3.33337H6.66667V0.833374H5V3.33337H3.3025V0.833374H1.66667C1.22464 0.833374 0.800716 1.00897 0.488155 1.32153C0.175595 1.63409 0 2.05801 0 2.50004L0 4.16671C0 4.60873 0.175595 5.03266 0.488155 5.34522C0.800716 5.65778 1.22464 5.83337 1.66667 5.83337H18.3333C18.7754 5.83337 19.1993 5.65778 19.5118 5.34522C19.8244 5.03266 20 4.60873 20 4.16671V2.50004C20 2.05801 19.8244 1.63409 19.5118 1.32153C19.1993 1.00897 18.7754 0.833374 18.3333 0.833374Z" fill="white"/>
<path d="M18.3333 7.5H8.36417V10H6.66667V7.5H5V10H3.3025V7.5H1.66667C1.22464 7.5 0.800716 7.6756 0.488155 7.98816C0.175595 8.30072 0 8.72464 0 9.16667L0 10.8333C0 11.2754 0.175595 11.6993 0.488155 12.0118C0.800716 12.3244 1.22464 12.5 1.66667 12.5H18.3333C18.7754 12.5 19.1993 12.3244 19.5118 12.0118C19.8244 11.6993 20 11.2754 20 10.8333V9.16667C20 8.72464 19.8244 8.30072 19.5118 7.98816C19.1993 7.6756 18.7754 7.5 18.3333 7.5Z" fill="white"/>
<path d="M18.3333 14.1666H8.36417V16.6666H6.66667V14.1666H5V16.6666H3.3025V14.1666H1.66667C1.22464 14.1666 0.800716 14.3422 0.488155 14.6548C0.175595 14.9673 0 15.3913 0 15.8333L0 17.5C0 17.942 0.175595 18.3659 0.488155 18.6785C0.800716 18.991 1.22464 19.1666 1.66667 19.1666H18.3333C18.7754 19.1666 19.1993 18.991 19.5118 18.6785C19.8244 18.3659 20 17.942 20 17.5V15.8333C20 15.3913 19.8244 14.9673 19.5118 14.6548C19.1993 14.3422 18.7754 14.1666 18.3333 14.1666Z" fill="white"/>
</g>
<defs>
<clipPath id="clip0_210_437">
<rect width="20" height="20" fill="white"/>
</clipPath>
</defs>
</svg>
