<svg width="16" height="16" viewBox="0 0 16 16" fill="none" xmlns="http://www.w3.org/2000/svg">
<g clip-path="url(#clip0_63_690)">
<path d="M8 0C3.58867 0 0 3.58867 0 8C0 12.4113 3.58867 16 8 16C12.4113 16 16 12.4113 16 8C16 3.58867 12.4113 0 8 0ZM10.356 9.00733L8.862 12.2447C8.74333 12.502 8.486 12.6667 8.20267 12.6667H8.06067C7.65933 12.6667 7.334 12.3413 7.334 11.94V10.3633C7.334 10.1307 7.24133 9.90733 7.07667 9.74267L6.28333 8.94933C6.102 8.768 6 8.522 6 8.266V7.624C6 7.438 5.926 7.25933 5.794 7.12733L5.54533 6.87867C5.40933 6.74267 5.22533 6.66667 5.03333 6.66667H3.734C3.478 6.66667 3.23333 6.562 3.05667 6.376L1.95133 5.214C3.00933 2.92733 5.31933 1.33333 8 1.33333C8.13733 1.33333 8.27133 1.346 8.406 1.354C8.05067 1.89267 7.72867 2.388 7.53333 2.69067C7.41 2.88067 7.40733 3.12267 7.524 3.31733L8.082 4.248C8.23 4.494 8.19067 4.80933 7.988 5.01267L7.986 5.01467C7.79533 5.20533 7.50467 5.25267 7.26333 5.132L6.67667 4.83867C6.472 4.736 6.22467 4.77667 6.06267 4.938L5.71 5.29067C5.502 5.49867 5.502 5.83533 5.71 6.04267L6.10467 6.43733C6.25133 6.584 6.45067 6.66667 6.658 6.66667H7.612C7.866 6.66667 8.11467 6.738 8.33 6.87267L10.038 7.94C10.3973 8.16467 10.534 8.622 10.356 9.00733ZM13.016 8.17333C12.7947 8.06333 12.6327 7.862 12.5727 7.622L12.1547 5.95067C12.0633 5.58533 12.2253 5.20333 12.5513 5.01533L13.6067 4.40667C14.2747 5.44467 14.6667 6.67667 14.6667 8C14.6667 8.32533 14.6353 8.642 14.59 8.95467L13.016 8.17333Z" fill="white"/>
</g>
<defs>
<clipPath id="clip0_63_690">
<rect width="16" height="16" fill="white"/>
</clipPath>
</defs>
</svg>
