<svg width="118" height="120" viewBox="0 0 118 120" fill="none" xmlns="http://www.w3.org/2000/svg">
<rect width="118" height="120" rx="30" fill="#DADADA"/>
<rect x="9" y="9" width="44" height="50" rx="20" fill="black" fill-opacity="0.25"/>
<rect x="9" y="63" width="44" height="48" rx="20" fill="black" fill-opacity="0.25"/>
<rect x="58" y="9" width="51" height="102" rx="20" fill="#1AAC81"/>
<path d="M22.6621 87.1826C22.6621 86.2665 23.4047 85.5239 24.3208 85.5239H35.6518C36.5679 85.5239 37.3105 86.2665 37.3105 87.1826C37.3105 88.0987 36.5679 88.8413 35.6518 88.8413H24.3208C23.4047 88.8413 22.6621 88.0987 22.6621 87.1826Z" fill="white"/>
<path d="M72.0895 57.3697C72.0895 56.4536 72.8322 55.711 73.7483 55.711H92.0373C92.9534 55.711 93.696 56.4536 93.696 57.3697C93.696 58.2858 92.9534 59.0284 92.0373 59.0284H73.7483C72.8322 59.0284 72.0895 58.2858 72.0895 57.3697ZM72.0895 65.0171C72.0895 64.101 72.8322 63.3583 73.7483 63.3583H92.0373C92.9534 63.3583 93.696 64.101 93.696 65.0171C93.696 65.9332 92.9534 66.6758 92.0373 66.6758H73.7483C72.8322 66.6758 72.0895 65.9332 72.0895 65.0171Z" fill="white"/>
<path d="M29.1802 40.3651C29.1802 37.8548 27.1452 35.8198 24.6349 35.8198H21.7267C20.8225 35.8198 20.0895 35.0868 20.0895 34.1826C20.0895 33.2784 20.8225 32.5454 21.7267 32.5454H24.6456C27.15 32.5454 29.1802 30.5152 29.1802 28.0109V25.1135C29.1802 24.2093 29.9132 23.4763 30.8174 23.4763C31.7216 23.4763 32.4545 24.2093 32.4545 25.1135V28.0109C32.4545 30.5152 34.4847 32.5454 36.9891 32.5454H40.0588C40.963 32.5454 41.696 33.2784 41.696 34.1826C41.696 35.0868 40.963 35.8198 40.0588 35.8198H37.0753C34.5233 35.8198 32.4545 37.8885 32.4545 40.4405V43.424C32.4545 44.3282 31.7216 45.0612 30.8174 45.0612C29.9132 45.0612 29.1802 44.3282 29.1802 43.424V40.3651Z" fill="white"/>
</svg>
