<svg width="118" height="120" viewBox="0 0 118 120" fill="none" xmlns="http://www.w3.org/2000/svg">
<rect width="118" height="120" rx="30" fill="#DE0D0D"/>
<path d="M6 26C6 15.5066 14.5066 7 25 7H92C102.493 7 111 15.5066 111 26V68.1299C111 85.0571 90.5343 93.5343 78.565 81.565L72.6816 75.6816C65.3613 68.3613 53.5281 68.2486 46.0698 75.4281L38.1767 83.0261C26.1069 94.6447 6 86.091 6 69.3377V26Z" fill="white"/>
<path d="M6 49C6 42.3726 11.3726 37 18 37H99C105.627 37 111 42.3726 111 49V94.6852C111 104.631 99.5951 110.26 91.7007 104.21L66.6619 85.0213C62.42 81.7705 56.5395 81.7167 52.2388 84.8893L25.1238 104.892C17.2014 110.737 6 105.08 6 95.2356V49Z" fill="white"/>
</svg>
