<svg width="118" height="120" viewBox="0 0 118 120" fill="none" xmlns="http://www.w3.org/2000/svg">
<rect width="118" height="120" rx="30" fill="white"/>
<path d="M6 30.6C6 29.1144 6 28.3715 6.03289 27.7439C6.67577 15.4771 16.4771 5.67577 28.7439 5.03289C29.3715 5 30.1144 5 31.6 5H86.4C87.8856 5 88.6285 5 89.2561 5.03289C101.523 5.67577 111.324 15.4771 111.967 27.7439C112 28.3715 112 29.1144 112 30.6C112 30.9714 112 31.1571 111.992 31.314C111.831 34.3807 109.381 36.8311 106.314 36.9918C106.157 37 105.971 37 105.6 37H12.4C12.0286 37 11.8429 37 11.686 36.9918C8.61928 36.8311 6.16894 34.3807 6.00822 31.314C6 31.1571 6 30.9714 6 30.6Z" fill="#DE0D0D"/>
<path d="M83.6583 53.1337C84.13 53.1337 84.5124 53.5161 84.5124 53.9878V94.5763C84.5124 97.5717 82.0841 100 79.0887 100C76.0932 100 73.6649 97.5717 73.6649 94.5763V70.932C73.6649 68.1492 70.9928 66.146 68.3217 66.9265L68.1357 66.9808C65.5575 67.734 62.9784 65.8006 62.9784 63.1147C62.9784 61.3984 64.066 59.8706 65.6878 59.3088L83.3788 53.1808C83.4687 53.1496 83.5632 53.1337 83.6583 53.1337Z" fill="black"/>
<path d="M34.7788 74.7965C34.7788 73.2677 36.0182 72.0283 37.547 72.0283H40.0577C41.4096 72.0283 42.5147 71.7923 43.3731 71.3202C44.2529 70.8266 44.9074 70.1399 45.3366 69.2601C45.7658 68.3588 45.9803 67.2966 45.9803 66.0735C45.9803 65.1293 45.7765 64.2602 45.3688 63.4662C44.9825 62.6722 44.3817 62.0392 43.5662 61.5671C42.7508 61.0735 41.71 60.8267 40.4439 60.8267C39.5856 60.8267 38.7487 61.0091 37.9333 61.3739C37.1178 61.7173 36.4419 62.2108 35.9054 62.8546C35.0349 63.9427 34.0033 65.2044 32.6098 65.2044H29.693C26.6887 65.2044 24.0685 62.6209 25.4427 59.9493C25.7254 59.3996 26.0585 58.8767 26.442 58.3804C27.9227 56.4706 29.8647 55.0114 32.2681 54.0028C34.693 52.9728 37.3002 52.4578 40.0899 52.4578C43.416 52.4578 46.3344 52.9728 48.8451 54.0028C51.3558 55.0114 53.3086 56.5135 54.7034 58.5092C56.1197 60.4834 56.8278 62.9297 56.8278 65.8481C56.8278 67.4576 56.4523 68.9704 55.7012 70.3867C54.9502 71.803 53.8987 73.0476 52.5468 74.1205C51.1949 75.1935 49.6069 76.0411 47.7829 76.6634C45.9803 77.2643 44.0061 77.5647 41.8602 77.5647H37.547C36.0182 77.5647 34.7788 76.3253 34.7788 74.7965ZM37.4826 80.1076C35.9893 80.1076 34.7788 78.897 34.7788 77.4038C34.7788 75.9105 35.9893 74.6999 37.4826 74.6999H41.8602C44.1993 74.6999 46.3344 74.9682 48.2657 75.5046C50.197 76.0197 51.8601 76.7922 53.2549 77.8222C54.6498 78.8522 55.7227 80.129 56.4738 81.6526C57.2248 83.1548 57.6004 84.8822 57.6004 86.835C57.6004 89.0238 57.1604 90.9765 56.2806 92.6932C55.4008 94.41 54.1669 95.8584 52.579 97.0387C50.991 98.2189 49.1348 99.1202 47.0104 99.7425C44.8859 100.343 42.5791 100.644 40.0899 100.644C38.1371 100.644 36.1844 100.386 34.2316 99.8713C32.2788 99.3348 30.4977 98.5193 28.8883 97.4249C27.2789 96.3091 25.9806 94.8928 24.9935 93.1761C24.8313 92.884 24.6826 92.5825 24.5476 92.2716C23.3509 89.5159 25.9805 86.9637 28.9849 86.9637H31.5621C33.1431 86.9637 34.3605 88.3468 35.2294 89.6675C35.7874 90.4615 36.5277 91.0946 37.4504 91.5667C38.3732 92.0387 39.371 92.2748 40.4439 92.2748C41.7744 92.2748 42.901 92.028 43.8237 91.5345C44.7679 91.0194 45.4868 90.3328 45.9803 89.4744C46.4739 88.6161 46.7207 87.6611 46.7207 86.6096C46.7207 85.0217 46.4524 83.7556 45.916 82.8114C45.401 81.8672 44.6392 81.1805 43.6306 80.7514C42.6435 80.3222 41.4525 80.1076 40.0577 80.1076H37.4826Z" fill="black"/>
<path d="M49.5293 23.1973C49.5293 22.9368 49.4707 22.696 49.3535 22.4746C49.2428 22.2467 49.0117 22.0417 48.6602 21.8594C48.3151 21.6706 47.7943 21.5078 47.0977 21.3711C46.5117 21.2474 45.9811 21.1009 45.5059 20.9316C45.0371 20.7624 44.6367 20.5573 44.3047 20.3164C43.9792 20.0755 43.7285 19.7923 43.5527 19.4668C43.377 19.1413 43.2891 18.7604 43.2891 18.3242C43.2891 17.9076 43.3802 17.5137 43.5625 17.1426C43.7513 16.7715 44.015 16.4427 44.3535 16.1562C44.6986 15.8698 45.112 15.6452 45.5938 15.4824C46.0755 15.3197 46.6126 15.2383 47.2051 15.2383C48.0514 15.2383 48.7741 15.388 49.373 15.6875C49.972 15.987 50.431 16.3874 50.75 16.8887C51.069 17.3835 51.2285 17.9336 51.2285 18.5391H49.4219C49.4219 18.2461 49.334 17.9629 49.1582 17.6895C48.9889 17.4095 48.7383 17.1784 48.4062 16.9961C48.0807 16.8138 47.6803 16.7227 47.2051 16.7227C46.7038 16.7227 46.2969 16.8008 45.9844 16.957C45.6784 17.1068 45.4538 17.2988 45.3105 17.5332C45.1738 17.7676 45.1055 18.015 45.1055 18.2754C45.1055 18.4707 45.138 18.6465 45.2031 18.8027C45.2747 18.9525 45.3984 19.0924 45.5742 19.2227C45.75 19.3464 45.9974 19.4635 46.3164 19.5742C46.6354 19.6849 47.0423 19.7956 47.5371 19.9062C48.403 20.1016 49.1159 20.3359 49.6758 20.6094C50.2357 20.8828 50.6523 21.2181 50.9258 21.6152C51.1992 22.0124 51.3359 22.4941 51.3359 23.0605C51.3359 23.5228 51.2383 23.946 51.043 24.3301C50.8542 24.7142 50.5775 25.0462 50.2129 25.3262C49.8548 25.5996 49.4251 25.8145 48.9238 25.9707C48.429 26.1204 47.8724 26.1953 47.2539 26.1953C46.3229 26.1953 45.5352 26.0293 44.8906 25.6973C44.2461 25.3652 43.7578 24.9355 43.4258 24.4082C43.0938 23.8809 42.9277 23.3242 42.9277 22.7383H44.7441C44.7702 23.2331 44.9134 23.627 45.1738 23.9199C45.4342 24.2064 45.7533 24.4115 46.1309 24.5352C46.5085 24.6523 46.8828 24.7109 47.2539 24.7109C47.7487 24.7109 48.1621 24.6458 48.4941 24.5156C48.8327 24.3854 49.0898 24.2064 49.2656 23.9785C49.4414 23.7507 49.5293 23.4902 49.5293 23.1973ZM57.2937 26.1953C56.5581 26.1953 55.8908 26.0716 55.2918 25.8242C54.6993 25.5703 54.1883 25.2155 53.7586 24.7598C53.3354 24.304 53.0099 23.7637 52.782 23.1387C52.5542 22.5137 52.4402 21.8301 52.4402 21.0879V20.6777C52.4402 19.8184 52.5672 19.0534 52.8211 18.3828C53.075 17.7057 53.4201 17.1328 53.8562 16.6641C54.2924 16.1953 54.7872 15.8405 55.3406 15.5996C55.894 15.3587 56.4669 15.2383 57.0594 15.2383C57.8146 15.2383 58.4656 15.3685 59.0125 15.6289C59.5659 15.8893 60.0184 16.2539 60.3699 16.7227C60.7215 17.1849 60.9819 17.7318 61.1512 18.3633C61.3204 18.9883 61.4051 19.6719 61.4051 20.4141V21.2246H53.5145V19.75H59.5984V19.6133C59.5724 19.1445 59.4747 18.6888 59.3055 18.2461C59.1427 17.8034 58.8823 17.4388 58.5242 17.1523C58.1661 16.8659 57.6779 16.7227 57.0594 16.7227C56.6492 16.7227 56.2716 16.8105 55.9266 16.9863C55.5815 17.1556 55.2853 17.4095 55.0379 17.748C54.7905 18.0866 54.5984 18.5 54.4617 18.9883C54.325 19.4766 54.2566 20.0397 54.2566 20.6777V21.0879C54.2566 21.5892 54.325 22.0612 54.4617 22.5039C54.6049 22.9401 54.81 23.3242 55.077 23.6562C55.3504 23.9883 55.6792 24.2487 56.0633 24.4375C56.4539 24.6263 56.8966 24.7207 57.3914 24.7207C58.0294 24.7207 58.5698 24.5905 59.0125 24.3301C59.4552 24.0697 59.8426 23.7214 60.1746 23.2852L61.2684 24.1543C61.0405 24.4993 60.7508 24.8281 60.3992 25.1406C60.0477 25.4531 59.6147 25.707 59.1004 25.9023C58.5926 26.0977 57.9904 26.1953 57.2937 26.1953ZM69.5602 15.4336H71.2008V25.7754C71.2008 26.7064 71.012 27.5007 70.6344 28.1582C70.2568 28.8158 69.7294 29.3138 69.0523 29.6523C68.3818 29.9974 67.607 30.1699 66.7281 30.1699C66.3635 30.1699 65.9339 30.1113 65.4391 29.9941C64.9508 29.8835 64.469 29.6914 63.9937 29.418C63.525 29.151 63.1311 28.7897 62.8121 28.334L63.7594 27.2598C64.2021 27.7936 64.6643 28.1647 65.1461 28.373C65.6344 28.5814 66.1161 28.6855 66.5914 28.6855C67.1643 28.6855 67.6591 28.5781 68.0758 28.3633C68.4924 28.1484 68.8147 27.8294 69.0426 27.4062C69.277 26.9896 69.3941 26.4753 69.3941 25.8633V17.7578L69.5602 15.4336ZM62.2848 20.834V20.6289C62.2848 19.8216 62.3792 19.0892 62.568 18.4316C62.7633 17.7676 63.04 17.1979 63.398 16.7227C63.7626 16.2474 64.2021 15.8828 64.7164 15.6289C65.2307 15.3685 65.8102 15.2383 66.4547 15.2383C67.1187 15.2383 67.6982 15.3555 68.193 15.5898C68.6943 15.8177 69.1174 16.153 69.4625 16.5957C69.8141 17.0319 70.0908 17.5592 70.2926 18.1777C70.4944 18.7962 70.6344 19.4961 70.7125 20.2773V21.1758C70.6409 21.9505 70.5009 22.6471 70.2926 23.2656C70.0908 23.8841 69.8141 24.4115 69.4625 24.8477C69.1174 25.2839 68.6943 25.6191 68.193 25.8535C67.6917 26.0814 67.1057 26.1953 66.4352 26.1953C65.8036 26.1953 65.2307 26.0618 64.7164 25.7949C64.2086 25.528 63.7724 25.1536 63.4078 24.6719C63.0432 24.1901 62.7633 23.6237 62.568 22.9727C62.3792 22.3151 62.2848 21.6022 62.2848 20.834ZM64.0914 20.6289V20.834C64.0914 21.3613 64.1435 21.8561 64.2477 22.3184C64.3583 22.7806 64.5243 23.1875 64.7457 23.5391C64.9736 23.8906 65.2633 24.1673 65.6148 24.3691C65.9664 24.5645 66.3863 24.6621 66.8746 24.6621C67.4736 24.6621 67.9684 24.5352 68.359 24.2812C68.7496 24.0273 69.0589 23.6921 69.2867 23.2754C69.5211 22.8587 69.7034 22.4062 69.8336 21.918V19.5645C69.762 19.2064 69.6513 18.8613 69.5016 18.5293C69.3583 18.1908 69.1695 17.8913 68.9352 17.6309C68.7073 17.3639 68.4241 17.1523 68.0855 16.9961C67.747 16.8398 67.3499 16.7617 66.8941 16.7617C66.3993 16.7617 65.9729 16.8659 65.6148 17.0742C65.2633 17.276 64.9736 17.556 64.7457 17.9141C64.5243 18.2656 64.3583 18.6758 64.2477 19.1445C64.1435 19.6068 64.0914 20.1016 64.0914 20.6289ZM73.1742 25.043C73.1742 24.737 73.2686 24.4798 73.4574 24.2715C73.6527 24.0566 73.9327 23.9492 74.2973 23.9492C74.6618 23.9492 74.9385 24.0566 75.1273 24.2715C75.3227 24.4798 75.4203 24.737 75.4203 25.043C75.4203 25.3424 75.3227 25.5964 75.1273 25.8047C74.9385 26.013 74.6618 26.1172 74.2973 26.1172C73.9327 26.1172 73.6527 26.013 73.4574 25.8047C73.2686 25.5964 73.1742 25.3424 73.1742 25.043Z" fill="white"/>
</svg>
