<svg width="118" height="120" viewBox="0 0 118 120" fill="none" xmlns="http://www.w3.org/2000/svg">
<rect width="118" height="120" rx="30" fill="#F05600"/>
<path d="M7 33.5C7 23.835 14.835 16 24.5 16C34.165 16 42 23.835 42 33.5V98.6551C42 106.025 36.0253 112 28.6551 112C16.6953 112 7 102.305 7 90.3449V33.5Z" fill="white"/>
<path d="M7 31.0716C7 17.7772 17.7772 7 31.0716 7H87.6364C100.54 7 111 17.4603 111 30.3636C111 34.5811 107.581 38 103.364 38H13.9284C10.102 38 7 34.898 7 31.0716Z" fill="white"/>
<circle cx="39.2126" cy="38.2125" r="12.1125" fill="#F05600"/>
<circle cx="78" cy="75.5" r="33.5" fill="white"/>
</svg>
