<svg width="118" height="120" viewBox="0 0 118 120" fill="none" xmlns="http://www.w3.org/2000/svg">
<rect width="118" height="120" rx="30" fill="#00D3D3"/>
<rect x="6" y="26" width="105" height="88" rx="24" fill="white"/>
<mask id="path-3-outside-1_57_77" maskUnits="userSpaceOnUse" x="15.6479" y="15.5142" width="82.8216" height="58.9013" fill="black">
<rect fill="white" x="15.6479" y="15.5142" width="82.8216" height="58.9013"/>
<path d="M23.345 45.609C23.1818 42.8642 23.977 41.1405 25.7304 40.4379C27.122 39.8803 28.4306 40.3249 29.6564 41.7717C30.7485 43.0461 32.8524 46.4021 35.9681 51.8398C36.7863 51.3828 37.251 51.132 37.3623 51.0873C38.1973 50.7528 38.782 51.003 39.1166 51.8379C39.2505 52.1719 39.2367 52.5004 39.0755 52.8234C38.9142 53.1464 38.6777 53.4027 38.3661 53.5922L37.3308 54.1524C38.5348 56.3509 39.3654 58.0207 39.8227 59.1618C40.2799 60.3029 40.3334 61.2828 39.9832 62.1015C39.6329 62.9201 39.0681 63.4856 38.2888 63.7979C37.5374 64.099 36.6855 64.0689 35.7332 63.7076C34.8087 63.3351 33.9844 62.8095 33.2602 62.1307C31.7003 60.6562 30.7419 59.4736 30.385 58.583C29.7047 56.8853 30.781 55.0974 33.6138 53.2193C30.3867 47.6647 28.4778 44.5535 27.8872 43.8858C27.3133 43.179 26.9289 42.8647 26.7341 42.9427C26.1775 43.1658 25.9413 43.9872 26.0257 45.4069C26.2845 49.7607 26.5398 52.8562 26.7914 54.6934C27.0431 56.5306 27.3283 58.532 27.647 60.6976C27.9657 62.8633 28.1894 64.4694 28.3181 65.5161C28.4635 66.5238 28.4778 67.164 28.361 67.4369C28.2721 67.6987 28.0468 67.902 27.6849 68.047C26.85 68.3816 26.2652 68.1314 25.9306 67.2965L25.8134 66.762C25.5953 65.1698 25.3269 63.2908 25.0082 61.1252C24.7173 58.9484 24.4936 57.3423 24.3371 56.3068C23.9567 53.4229 23.626 49.857 23.345 45.609ZM34.9932 55.5736C33.4683 56.6046 32.7951 57.3427 32.9735 57.788C33.1743 58.289 33.8456 59.0374 34.9876 60.0334C36.1575 61.0181 36.9233 61.438 37.2851 61.293C37.5634 61.1815 37.5186 60.6665 37.1505 59.7481C36.7713 58.8018 36.0522 57.4103 34.9932 55.5736ZM63.8952 46.2694C62.5658 48.3525 62.1911 50.1177 62.771 51.565C63.1056 52.3999 63.6903 52.6501 64.5253 52.3155C64.9706 52.1371 65.2431 51.6887 65.3429 50.9704C65.4427 50.2521 65.3141 49.4477 64.9573 48.5571C64.6004 47.6664 64.2464 46.9039 63.8952 46.2694ZM81.2246 46.1084C79.4212 46.9279 78.67 47.7134 78.9712 48.4649C79.3057 49.2999 79.8905 49.55 80.7254 49.2155C81.4212 48.9367 81.5876 47.901 81.2246 46.1084ZM64.0762 41.8847C66.7916 39.1493 69.026 37.4302 70.7794 36.7276C73.2007 35.7574 75.5476 35.8506 77.8199 37.0072C80.0923 38.1639 81.7721 39.978 82.8593 42.4494C84.5179 41.5909 85.5643 40.9778 85.9983 40.6101C86.4324 40.2424 86.7051 40.0362 86.8164 39.9916C87.6514 39.657 88.2361 39.9072 88.5707 40.7421C88.8161 41.3544 88.577 41.967 87.8536 42.5799C87.0968 43.2708 85.7305 44.0929 83.7545 45.0462C84.1732 46.8164 84.188 48.264 83.7989 49.389C83.421 50.5417 82.7033 51.33 81.6457 51.7538C80.5881 52.1776 79.572 52.181 78.5974 51.764C77.6228 51.347 76.9124 50.5819 76.4663 49.4686C75.496 47.0473 76.8032 45.0699 80.3879 43.5366C79.6519 41.8612 78.4958 40.5479 76.9196 39.5968C75.36 38.6067 73.7313 38.4518 72.0336 39.1321C70.3359 39.8124 68.2295 41.4478 65.7145 44.0384C66.2996 44.9344 66.9101 46.1756 67.5458 47.7621C68.1815 49.3485 68.2965 50.8044 67.8909 52.1297C67.4852 53.4551 66.698 54.352 65.529 54.8204C64.3601 55.2888 63.3022 55.3089 62.3555 54.8808C61.4198 54.4805 60.7234 53.7098 60.2661 52.5687C59.229 49.9803 59.912 47.0903 62.3153 43.8985C60.8055 42.3071 59.2573 41.8292 57.6709 42.4649C56.3628 42.9891 54.3486 45.0559 51.6282 48.6655C48.9078 52.275 47.0359 54.8986 46.0124 56.5361C44.989 58.1737 44.2408 59.2487 43.7678 59.7612C43.2726 60.2181 42.8719 60.5078 42.5658 60.6305C41.7308 60.9651 41.146 60.7149 40.8115 59.88C40.5884 59.3233 40.7969 58.7553 41.4368 58.1759C42.0767 57.5964 42.7527 56.7441 43.4646 55.619C44.1766 54.4939 45.1918 52.9566 46.5101 51.0071C47.8285 49.0576 49.5308 46.8573 51.6172 44.4062C53.7314 41.9439 55.4148 40.4619 56.6672 39.96C59.3669 38.8782 61.8366 39.5198 64.0762 41.8847ZM91.5626 38.768C92.0079 38.5896 92.5452 38.6004 93.1745 38.8004C93.8038 39.0005 94.2076 39.3232 94.3861 39.7685C94.5645 40.2138 94.5035 40.6258 94.2031 41.0046C93.9305 41.3722 93.5716 41.6453 93.1263 41.8237C92.6809 42.0022 92.2271 41.9579 91.7649 41.6909C91.3193 41.385 91.0017 40.9954 90.8121 40.5223C90.4775 39.6874 90.7277 39.1026 91.5626 38.768Z"/>
</mask>
<path d="M23.345 45.609C23.1818 42.8642 23.977 41.1405 25.7304 40.4379C27.122 39.8803 28.4306 40.3249 29.6564 41.7717C30.7485 43.0461 32.8524 46.4021 35.9681 51.8398C36.7863 51.3828 37.251 51.132 37.3623 51.0873C38.1973 50.7528 38.782 51.003 39.1166 51.8379C39.2505 52.1719 39.2367 52.5004 39.0755 52.8234C38.9142 53.1464 38.6777 53.4027 38.3661 53.5922L37.3308 54.1524C38.5348 56.3509 39.3654 58.0207 39.8227 59.1618C40.2799 60.3029 40.3334 61.2828 39.9832 62.1015C39.6329 62.9201 39.0681 63.4856 38.2888 63.7979C37.5374 64.099 36.6855 64.0689 35.7332 63.7076C34.8087 63.3351 33.9844 62.8095 33.2602 62.1307C31.7003 60.6562 30.7419 59.4736 30.385 58.583C29.7047 56.8853 30.781 55.0974 33.6138 53.2193C30.3867 47.6647 28.4778 44.5535 27.8872 43.8858C27.3133 43.179 26.9289 42.8647 26.7341 42.9427C26.1775 43.1658 25.9413 43.9872 26.0257 45.4069C26.2845 49.7607 26.5398 52.8562 26.7914 54.6934C27.0431 56.5306 27.3283 58.532 27.647 60.6976C27.9657 62.8633 28.1894 64.4694 28.3181 65.5161C28.4635 66.5238 28.4778 67.164 28.361 67.4369C28.2721 67.6987 28.0468 67.902 27.6849 68.047C26.85 68.3816 26.2652 68.1314 25.9306 67.2965L25.8134 66.762C25.5953 65.1698 25.3269 63.2908 25.0082 61.1252C24.7173 58.9484 24.4936 57.3423 24.3371 56.3068C23.9567 53.4229 23.626 49.857 23.345 45.609ZM34.9932 55.5736C33.4683 56.6046 32.7951 57.3427 32.9735 57.788C33.1743 58.289 33.8456 59.0374 34.9876 60.0334C36.1575 61.0181 36.9233 61.438 37.2851 61.293C37.5634 61.1815 37.5186 60.6665 37.1505 59.7481C36.7713 58.8018 36.0522 57.4103 34.9932 55.5736ZM63.8952 46.2694C62.5658 48.3525 62.1911 50.1177 62.771 51.565C63.1056 52.3999 63.6903 52.6501 64.5253 52.3155C64.9706 52.1371 65.2431 51.6887 65.3429 50.9704C65.4427 50.2521 65.3141 49.4477 64.9573 48.5571C64.6004 47.6664 64.2464 46.9039 63.8952 46.2694ZM81.2246 46.1084C79.4212 46.9279 78.67 47.7134 78.9712 48.4649C79.3057 49.2999 79.8905 49.55 80.7254 49.2155C81.4212 48.9367 81.5876 47.901 81.2246 46.1084ZM64.0762 41.8847C66.7916 39.1493 69.026 37.4302 70.7794 36.7276C73.2007 35.7574 75.5476 35.8506 77.8199 37.0072C80.0923 38.1639 81.7721 39.978 82.8593 42.4494C84.5179 41.5909 85.5643 40.9778 85.9983 40.6101C86.4324 40.2424 86.7051 40.0362 86.8164 39.9916C87.6514 39.657 88.2361 39.9072 88.5707 40.7421C88.8161 41.3544 88.577 41.967 87.8536 42.5799C87.0968 43.2708 85.7305 44.0929 83.7545 45.0462C84.1732 46.8164 84.188 48.264 83.7989 49.389C83.421 50.5417 82.7033 51.33 81.6457 51.7538C80.5881 52.1776 79.572 52.181 78.5974 51.764C77.6228 51.347 76.9124 50.5819 76.4663 49.4686C75.496 47.0473 76.8032 45.0699 80.3879 43.5366C79.6519 41.8612 78.4958 40.5479 76.9196 39.5968C75.36 38.6067 73.7313 38.4518 72.0336 39.1321C70.3359 39.8124 68.2295 41.4478 65.7145 44.0384C66.2996 44.9344 66.9101 46.1756 67.5458 47.7621C68.1815 49.3485 68.2965 50.8044 67.8909 52.1297C67.4852 53.4551 66.698 54.352 65.529 54.8204C64.3601 55.2888 63.3022 55.3089 62.3555 54.8808C61.4198 54.4805 60.7234 53.7098 60.2661 52.5687C59.229 49.9803 59.912 47.0903 62.3153 43.8985C60.8055 42.3071 59.2573 41.8292 57.6709 42.4649C56.3628 42.9891 54.3486 45.0559 51.6282 48.6655C48.9078 52.275 47.0359 54.8986 46.0124 56.5361C44.989 58.1737 44.2408 59.2487 43.7678 59.7612C43.2726 60.2181 42.8719 60.5078 42.5658 60.6305C41.7308 60.9651 41.146 60.7149 40.8115 59.88C40.5884 59.3233 40.7969 58.7553 41.4368 58.1759C42.0767 57.5964 42.7527 56.7441 43.4646 55.619C44.1766 54.4939 45.1918 52.9566 46.5101 51.0071C47.8285 49.0576 49.5308 46.8573 51.6172 44.4062C53.7314 41.9439 55.4148 40.4619 56.6672 39.96C59.3669 38.8782 61.8366 39.5198 64.0762 41.8847ZM91.5626 38.768C92.0079 38.5896 92.5452 38.6004 93.1745 38.8004C93.8038 39.0005 94.2076 39.3232 94.3861 39.7685C94.5645 40.2138 94.5035 40.6258 94.2031 41.0046C93.9305 41.3722 93.5716 41.6453 93.1263 41.8237C92.6809 42.0022 92.2271 41.9579 91.7649 41.6909C91.3193 41.385 91.0017 40.9954 90.8121 40.5223C90.4775 39.6874 90.7277 39.1026 91.5626 38.768Z" fill="#04093A"/>
<path d="M23.345 45.609L22.7218 45.646L22.7221 45.6502L23.345 45.609ZM29.6564 41.7717L29.1801 42.1753L29.1824 42.178L29.6564 41.7717ZM35.9681 51.8398L35.4264 52.1502L35.7334 52.686L36.2725 52.3849L35.9681 51.8398ZM38.3661 53.5922L38.6632 54.1413L38.677 54.1338L38.6904 54.1256L38.3661 53.5922ZM37.3308 54.1524L37.0337 53.6033L36.4819 53.9019L36.7832 54.4523L37.3308 54.1524ZM39.9832 62.1015L39.4092 61.8559L39.9832 62.1015ZM35.7332 63.7076L35.4998 64.2868L35.5117 64.2913L35.7332 63.7076ZM33.2602 62.1307L32.8313 62.5844L32.8332 62.5862L33.2602 62.1307ZM33.6138 53.2193L33.9587 53.7396L34.4492 53.4145L34.1536 52.9057L33.6138 53.2193ZM27.8872 43.8858L27.4026 44.2793L27.4109 44.2895L27.4196 44.2994L27.8872 43.8858ZM26.0257 45.4069L25.4025 45.4439L26.0257 45.4069ZM26.7914 54.6934L26.1729 54.7781L26.1729 54.7781L26.7914 54.6934ZM27.647 60.6976L28.2647 60.6068L27.647 60.6976ZM28.3181 65.5161L27.6983 65.5923L27.7002 65.6052L28.3181 65.5161ZM28.361 67.4369L27.7871 67.1914L27.7776 67.2134L27.7699 67.2361L28.361 67.4369ZM25.9306 67.2964L25.3208 67.4302L25.3319 67.4807L25.3511 67.5287L25.9306 67.2964ZM25.8134 66.762L25.1949 66.8468L25.1983 66.8715L25.2036 66.8958L25.8134 66.762ZM25.0082 61.1252L24.3893 61.2079L24.3905 61.2161L25.0082 61.1252ZM24.3371 56.3068L23.718 56.3884L23.7198 56.4001L24.3371 56.3068ZM34.9932 55.5736L35.5341 55.2618L35.1991 54.6808L34.6436 55.0564L34.9932 55.5736ZM34.9876 60.0334L34.5772 60.5039L34.5856 60.511L34.9876 60.0334ZM23.9682 45.5719C23.8902 44.2593 24.0464 43.2551 24.3859 42.5191C24.717 41.8014 25.2348 41.309 25.9626 41.0174L25.4982 39.8584C24.4725 40.2694 23.7161 40.9902 23.2521 41.9961C22.7965 42.9838 22.6367 44.2139 22.7218 45.646L23.9682 45.5719ZM25.9626 41.0174C26.5327 40.789 27.0539 40.7741 27.5548 40.9442C28.0692 41.119 28.6142 41.5073 29.1801 42.1753L30.1328 41.3682C29.4729 40.5893 28.7506 40.0318 27.9564 39.762C27.1486 39.4876 26.3197 39.5292 25.4982 39.8584L25.9626 41.0174ZM29.1824 42.178C30.2279 43.398 32.301 46.6956 35.4264 52.1502L36.5098 51.5295C33.4037 46.1086 31.2691 42.6942 30.1305 41.3655L29.1824 42.178ZM36.2725 52.3849C36.6807 52.1569 36.9984 51.9816 37.2268 51.8583C37.3412 51.7966 37.431 51.7491 37.4975 51.715C37.5717 51.6769 37.5973 51.6657 37.5945 51.6669L37.1301 50.5078C37.0335 50.5466 36.8524 50.6415 36.6338 50.7595C36.3974 50.8871 36.0737 51.0658 35.6636 51.2948L36.2725 52.3849ZM37.5945 51.6669C37.9227 51.5354 38.0951 51.561 38.1815 51.598C38.268 51.635 38.4056 51.742 38.5371 52.0701L39.6961 51.6057C39.493 51.0989 39.171 50.6633 38.6727 50.4501C38.1744 50.2369 37.6369 50.3048 37.1301 50.5078L37.5945 51.6669ZM38.5371 52.0701C38.6044 52.2379 38.5988 52.3805 38.5169 52.5446L39.634 53.1023C39.8746 52.6203 39.8965 52.1059 39.6961 51.6057L38.5371 52.0701ZM38.5169 52.5446C38.4087 52.7612 38.254 52.9297 38.0417 53.0588L38.6904 54.1256C39.1015 53.8757 39.4197 53.5317 39.634 53.1023L38.5169 52.5446ZM38.0689 53.0431L37.0337 53.6033L37.6279 54.7015L38.6632 54.1413L38.0689 53.0431ZM36.7832 54.4523C37.9849 56.6465 38.8005 58.2893 39.2432 59.394L40.4022 58.9296C39.9304 57.7522 39.0847 56.0554 37.8784 53.8525L36.7832 54.4523ZM39.2432 59.394C39.6627 60.4411 39.6728 61.2398 39.4092 61.8559L40.5571 62.347C40.9941 61.3258 40.8971 60.1647 40.4022 58.9296L39.2432 59.394ZM39.4092 61.8559C39.1197 62.5326 38.6722 62.9717 38.0566 63.2184L38.521 64.3774C39.4641 63.9995 40.1461 63.3077 40.5571 62.347L39.4092 61.8559ZM38.0566 63.2184C37.4853 63.4473 36.7999 63.4446 35.9547 63.1239L35.5117 64.2913C36.5711 64.6932 37.5894 64.7507 38.521 64.3774L38.0566 63.2184ZM35.9665 63.1285C35.1134 62.7848 34.3547 62.3009 33.6871 61.6752L32.8332 62.5862C33.614 63.318 34.5041 63.8854 35.4999 64.2867L35.9665 63.1285ZM33.689 61.677C32.1331 60.2062 31.2664 59.104 30.9645 58.3508L29.8055 58.8152C30.2175 59.8432 31.2675 61.1061 32.8313 62.5844L33.689 61.677ZM30.9645 58.3508C30.7081 57.7108 30.7634 57.0441 31.2168 56.2908C31.6863 55.5109 32.5767 54.6559 33.9587 53.7396L33.2688 52.699C31.818 53.6608 30.7539 54.6388 30.1471 55.6468C29.5243 56.6814 29.3817 57.7575 29.8055 58.8152L30.9645 58.3508ZM34.1536 52.9057C32.5391 50.1268 31.2522 47.9554 30.2939 46.3935C29.3507 44.8561 28.6945 43.8562 28.3548 43.4722L27.4196 44.2994C27.6705 44.5831 28.2641 45.4727 29.2297 47.0465C30.1802 48.5958 31.4613 50.7572 33.074 53.5329L34.1536 52.9057ZM28.3718 43.4922C28.0763 43.1283 27.8052 42.8342 27.5637 42.6367C27.4442 42.539 27.3051 42.4423 27.1516 42.3797C27.0017 42.3186 26.7605 42.2596 26.5019 42.3632L26.9663 43.5223C26.8051 43.5869 26.685 43.5379 26.68 43.5358C26.6712 43.5323 26.7006 43.5438 26.7733 43.6032C26.9161 43.72 27.1242 43.9365 27.4026 44.2793L28.3718 43.4922ZM26.5019 42.3632C25.9777 42.5733 25.687 43.0405 25.5395 43.5536C25.3932 44.0626 25.3585 44.7039 25.4025 45.4439L26.6489 45.3699C26.6085 44.6902 26.6497 44.2109 26.7395 43.8986C26.8282 43.5903 26.9339 43.5352 26.9663 43.5223L26.5019 42.3632ZM25.4025 45.4439C25.6614 49.7982 25.9177 52.9149 26.1729 54.7781L27.41 54.6087C27.1619 52.7975 26.9077 49.7232 26.6489 45.3699L25.4025 45.4439ZM26.1729 54.7781C26.4249 56.6177 26.7104 58.6212 27.0294 60.7885L28.2647 60.6068C27.9462 58.4428 27.6613 56.4435 27.41 54.6087L26.1729 54.7781ZM27.0294 60.7885C27.3479 62.9533 27.5707 64.5534 27.6985 65.5923L28.9377 65.4399C28.8081 64.3855 28.5835 62.7733 28.2647 60.6068L27.0294 60.7885ZM27.7002 65.6052C27.7711 66.0968 27.8074 66.4812 27.8137 66.766C27.8169 66.9081 27.8124 67.0158 27.8036 67.0938C27.7943 67.1766 27.7829 67.2011 27.7871 67.1914L28.935 67.6825C29.0501 67.4135 29.0694 67.0676 29.062 66.7381C29.0541 66.3826 29.0105 65.943 28.936 65.4269L27.7002 65.6052ZM27.7699 67.2361C27.7607 67.2633 27.7174 67.3615 27.4527 67.4675L27.9172 68.6265C28.3762 68.4426 28.7836 68.134 28.9522 67.6378L27.7699 67.2361ZM27.4527 67.4675C27.1246 67.599 26.9522 67.5733 26.8657 67.5363C26.7793 67.4993 26.6416 67.3924 26.5101 67.0642L25.3511 67.5287C25.5542 68.0355 25.8763 68.4711 26.3746 68.6843C26.8729 68.8975 27.4104 68.8296 27.9172 68.6265L27.4527 67.4675ZM26.5404 67.1627L26.4232 66.6282L25.2036 66.8958L25.3208 67.4302L26.5404 67.1627ZM26.4319 66.6773C26.2134 65.0824 25.9447 63.2013 25.6258 61.0343L24.3905 61.2161C24.709 63.3804 24.9771 65.2572 25.1949 66.8468L26.4319 66.6773ZM25.627 61.0425C25.336 58.8651 25.1117 57.2545 24.9544 56.2134L23.7198 56.4001C23.8755 57.43 24.0986 59.0317 24.3894 61.2079L25.627 61.0425ZM24.956 56.2251C24.578 53.3593 24.2484 49.8078 23.9679 45.5678L22.7221 45.6502C23.0036 49.9061 23.3354 53.4865 23.7181 56.3884L24.956 56.2251ZM34.6436 55.0564C33.8683 55.5805 33.2702 56.0556 32.8834 56.4797C32.6906 56.691 32.5239 56.918 32.4234 57.1583C32.3203 57.4049 32.2702 57.7112 32.394 58.0202L33.553 57.5558C33.5876 57.6422 33.5548 57.6892 33.5754 57.6399C33.5986 57.5844 33.662 57.4789 33.8059 57.3211C34.0923 57.0071 34.5932 56.5976 35.3429 56.0908L34.6436 55.0564ZM32.394 58.0202C32.5358 58.374 32.813 58.7519 33.1629 59.1419C33.5218 59.5421 33.9957 59.9966 34.5773 60.5039L35.398 59.5628C34.8376 59.0742 34.4048 58.6565 34.0923 58.3082C33.7708 57.9498 33.612 57.703 33.553 57.5558L32.394 58.0202ZM34.5856 60.511C35.1824 61.0133 35.7029 61.395 36.1392 61.6343C36.3571 61.7537 36.5765 61.8503 36.7901 61.9024C36.9989 61.9533 37.2601 61.9756 37.5173 61.8725L37.0529 60.7135C37.1292 60.6829 37.159 60.7071 37.0859 60.6893C37.0175 60.6727 36.9046 60.6299 36.7395 60.5394C36.41 60.3587 35.9627 60.0382 35.3897 59.5557L34.5856 60.511ZM37.5173 61.8725C38.0734 61.6497 38.1087 61.0744 38.0821 60.769C38.0515 60.4175 37.92 59.9901 37.73 59.5158L36.571 59.9803C36.749 60.4245 36.824 60.7138 36.8382 60.8773C36.8454 60.9592 36.8322 60.9588 36.8482 60.9157C36.8726 60.8503 36.9394 60.759 37.0529 60.7135L37.5173 61.8725ZM37.73 59.5158C37.3335 58.5262 36.5956 57.1029 35.5341 55.2618L34.4524 55.8854C35.5088 57.7177 36.2092 59.0773 36.571 59.9803L37.73 59.5158ZM63.8952 46.2694L64.4414 45.9671L63.9334 45.0491L63.3689 45.9335L63.8952 46.2694ZM65.3429 50.9704L65.9613 51.0563L65.9613 51.0563L65.3429 50.9704ZM81.2246 46.1084L81.8365 45.9845L81.6808 45.2153L80.9663 45.54L81.2246 46.1084ZM64.0762 41.8847L63.6229 42.314L64.0657 42.7815L64.5193 42.3245L64.0762 41.8847ZM82.8593 42.4494L82.2878 42.7008L82.5556 43.3095L83.1462 43.0038L82.8593 42.4494ZM85.9983 40.6101L85.5948 40.1338L85.9983 40.6101ZM87.8536 42.5799L87.4501 42.1036L87.4412 42.1111L87.4327 42.1189L87.8536 42.5799ZM83.7545 45.0462L83.4832 44.4839L83.0315 44.7018L83.147 45.1898L83.7545 45.0462ZM83.7989 49.389L83.2088 49.1849L83.2057 49.1945L83.7989 49.389ZM78.5974 51.764L78.8429 51.19L78.8429 51.19L78.5974 51.764ZM80.3879 43.5366L80.6334 44.1106L81.213 43.8627L80.9595 43.2855L80.3879 43.5366ZM76.9196 39.5968L76.585 40.1238L76.5909 40.1277L76.597 40.1313L76.9196 39.5968ZM65.7145 44.0384L65.2665 43.6035L64.9188 43.9617L65.1918 44.3797L65.7145 44.0384ZM67.8909 52.1297L67.2939 51.947L67.8909 52.1297ZM62.3555 54.8808L62.6127 54.3118L62.601 54.3068L62.3555 54.8808ZM62.3153 43.8985L62.814 44.274L63.1318 43.852L62.7682 43.4688L62.3153 43.8985ZM51.6282 48.6655L51.1296 48.2897L51.6282 48.6655ZM46.0124 56.5361L46.5418 56.867L46.0124 56.5361ZM43.7679 59.7612L44.1912 60.2201L44.2096 60.2031L44.2267 60.1846L43.7679 59.7612ZM41.4368 58.1759L41.0178 57.7131L41.4368 58.1759ZM43.4646 55.619L43.9922 55.9529L43.4646 55.619ZM46.5101 51.0071L47.0273 51.3568L46.5101 51.0071ZM51.6172 44.4062L51.1436 43.9995L51.1418 44.0015L51.6172 44.4062ZM63.3689 45.9335C61.9959 48.085 61.501 50.0741 62.1915 51.7972L63.3505 51.3328C62.8811 50.1614 63.1357 48.62 64.4215 46.6052L63.3689 45.9335ZM62.1915 51.7972C62.3946 52.304 62.7166 52.7396 63.2149 52.9528C63.7132 53.166 64.2507 53.0981 64.7575 52.895L64.2931 51.736C63.9649 51.8675 63.7925 51.8418 63.7061 51.8048C63.6196 51.7679 63.482 51.6609 63.3505 51.3328L62.1915 51.7972ZM64.7575 52.895C65.505 52.5955 65.8478 51.8732 65.9613 51.0563L64.7246 50.8845C64.6385 51.5042 64.4362 51.6787 64.2931 51.736L64.7575 52.895ZM65.9613 51.0563C66.0801 50.2011 65.9214 49.2847 65.5368 48.3248L64.3778 48.7893C64.7069 49.6106 64.8053 50.3031 64.7246 50.8845L65.9613 51.0563ZM65.5368 48.3248C65.1731 47.4174 64.8084 46.6301 64.4414 45.9671L63.349 46.5717C63.6843 47.1776 64.0276 47.9155 64.3778 48.7893L65.5368 48.3248ZM80.9663 45.54C80.0418 45.9602 79.3162 46.4011 78.8575 46.8807C78.3815 47.3784 78.118 48.0143 78.3916 48.6971L79.5507 48.2327C79.5232 48.1641 79.4847 48.0314 79.7599 47.7436C80.0524 47.4378 80.604 47.0762 81.4829 46.6767L80.9663 45.54ZM78.3916 48.6971C78.5947 49.2039 78.9168 49.6395 79.4151 49.8527C79.9134 50.0659 80.4509 49.9981 80.9577 49.795L80.4932 48.636C80.1651 48.7675 79.9927 48.7418 79.9062 48.7048C79.8198 48.6678 79.6821 48.5608 79.5507 48.2327L78.3916 48.6971ZM80.9577 49.795C81.5855 49.5434 81.8859 48.967 81.9885 48.3286C82.0893 47.7013 82.0235 46.9079 81.8365 45.9845L80.6128 46.2323C80.7887 47.1014 80.8213 47.7222 80.7557 48.1306C80.6919 48.5279 80.5612 48.6087 80.4932 48.636L80.9577 49.795ZM64.5193 42.3245C67.2242 39.5997 69.3835 37.9595 71.0116 37.3071L70.5472 36.1481C68.6685 36.9009 66.359 38.6989 63.6332 41.4449L64.5193 42.3245ZM71.0116 37.3071C73.2703 36.4021 75.429 36.4907 77.5367 37.5636L78.1031 36.4509C75.6662 35.2104 73.1312 35.1127 70.5472 36.1481L71.0116 37.3071ZM77.5367 37.5636C79.6727 38.6509 81.2549 40.3529 82.2878 42.7008L83.4307 42.198C82.2892 39.6031 80.5118 37.677 78.1031 36.4509L77.5367 37.5636ZM83.1462 43.0038C84.7899 42.1531 85.9038 41.5084 86.4019 41.0864L85.5948 40.1338C85.2248 40.4472 84.246 41.0287 82.5723 41.8949L83.1462 43.0038ZM86.4019 41.0864C86.6151 40.9058 86.7818 40.7707 86.9049 40.6776C86.9666 40.631 87.0123 40.5988 87.044 40.578C87.0827 40.5528 87.0793 40.5588 87.0486 40.5711L86.5842 39.4121C86.439 39.4703 86.2791 39.5855 86.1519 39.6817C86.0023 39.7948 85.8157 39.9466 85.5948 40.1338L86.4019 41.0864ZM87.0486 40.5711C87.3768 40.4396 87.5492 40.4653 87.6356 40.5023C87.7221 40.5392 87.8597 40.6462 87.9912 40.9743L89.1502 40.5099C88.9471 40.0031 88.6251 39.5675 88.1268 39.3543C87.6285 39.1411 87.091 39.209 86.5842 39.4121L87.0486 40.5711ZM87.9912 40.9743C88.0551 41.1338 88.0555 41.2758 87.9939 41.4339C87.925 41.6102 87.7653 41.8365 87.4501 42.1036L88.2572 43.0563C88.6653 42.7105 88.9868 42.324 89.157 41.8877C89.3344 41.4332 89.3317 40.9628 89.1502 40.5099L87.9912 40.9743ZM87.4327 42.1189C86.7476 42.7443 85.4521 43.534 83.4832 44.4839L84.0258 45.6084C86.0088 44.6518 87.4461 43.7973 88.2745 43.041L87.4327 42.1189ZM83.147 45.1898C83.5517 46.9013 83.5439 48.2163 83.2089 49.1849L84.3889 49.593C84.8321 48.3118 84.7946 46.7316 84.362 44.9025L83.147 45.1898ZM83.2057 49.1945C82.8811 50.1848 82.2875 50.8241 81.4135 51.1743L81.8779 52.3333C83.1191 51.8359 83.961 50.8986 84.3922 49.5834L83.2057 49.1945ZM81.4135 51.1743C80.4968 51.5416 79.6532 51.5367 78.8429 51.19L78.3518 52.338C79.4908 52.8253 80.6793 52.8136 81.8779 52.3333L81.4135 51.1743ZM78.8429 51.19C78.041 50.847 77.4391 50.218 77.0458 49.2364L75.8868 49.7009C76.3857 50.9458 77.2045 51.8471 78.3518 52.338L78.8429 51.19ZM77.0458 49.2364C76.6279 48.1935 76.7118 47.3125 77.2398 46.5139C77.7954 45.6735 78.888 44.8572 80.6334 44.1106L80.1424 42.9626C78.3031 43.7493 76.9498 44.6884 76.1982 45.8253C75.419 47.0041 75.3344 48.3224 75.8868 49.7009L77.0458 49.2364ZM80.9595 43.2855C80.1714 41.4914 78.9279 40.0795 77.2421 39.0623L76.597 40.1313C78.0637 41.0163 79.1325 42.2309 79.8163 43.7877L80.9595 43.2855ZM77.2542 39.0697C75.5271 37.9733 73.6877 37.7967 71.8014 38.5526L72.2658 39.7116C73.775 39.1069 75.1929 39.2401 76.585 40.1238L77.2542 39.0697ZM71.8014 38.5526C69.9765 39.2839 67.7946 40.9995 65.2665 43.6035L66.1624 44.4732C68.6644 41.8961 70.6952 40.341 72.2658 39.7116L71.8014 38.5526ZM65.1918 44.3797C65.7452 45.2273 66.338 46.4263 66.9663 47.9943L68.1253 47.5298C67.4822 45.925 66.854 44.6416 66.2372 43.697L65.1918 44.3797ZM66.9663 47.9943C67.5617 49.4801 67.6488 50.7873 67.2939 51.947L68.4878 52.3124C68.9442 50.8214 68.8012 49.2168 68.1253 47.5298L66.9663 47.9943ZM67.2939 51.947C66.9372 53.1125 66.2712 53.8504 65.2968 54.2409L65.7612 55.3999C67.1247 54.8535 68.0333 53.7977 68.4878 52.3124L67.2939 51.947ZM65.2968 54.2409C64.2498 54.6604 63.3725 54.6556 62.6127 54.312L62.0982 55.4496C63.2319 55.9623 64.4704 55.9171 65.7612 55.3999L65.2968 54.2409ZM62.601 54.3068C61.8484 53.9848 61.255 53.358 60.8456 52.3365L59.6866 52.8009C60.1918 54.0616 60.9913 54.9762 62.1099 55.4548L62.601 54.3068ZM60.8456 52.3365C59.922 50.0315 60.4797 47.3742 62.814 44.274L61.8166 43.523C59.3443 46.8063 58.5359 49.9292 59.6866 52.8009L60.8456 52.3365ZM62.7682 43.4688C61.9646 42.6217 61.1124 42.0298 60.206 41.75C59.2874 41.4664 58.3568 41.5175 57.4387 41.8854L57.9031 43.0444C58.5715 42.7766 59.2081 42.7487 59.8377 42.943C60.4794 43.1411 61.1562 43.5838 61.8624 44.3282L62.7682 43.4688ZM57.4387 41.8854C56.6563 42.1989 55.7495 42.9284 54.7321 43.9724C53.6993 45.0322 52.4979 46.4742 51.1296 48.2897L52.1268 49.0412C53.4789 47.2472 54.6448 45.851 55.6263 44.8439C56.6231 43.821 57.3775 43.255 57.9031 43.0444L57.4387 41.8854ZM51.1296 48.2897C48.4089 51.8998 46.5223 54.5424 45.483 56.2052L46.5418 56.867C47.5495 55.2548 49.4068 52.6503 52.1268 49.0412L51.1296 48.2897ZM45.483 56.2052C44.4562 57.8482 43.7366 58.8745 43.309 59.3378L44.2267 60.1846C44.745 59.6229 45.5218 58.4991 46.5418 56.867L45.483 56.2052ZM43.3445 59.3023C42.8593 59.75 42.5282 59.973 42.3335 60.051L42.798 61.21C43.2156 61.0427 43.6859 60.6861 44.1912 60.2201L43.3445 59.3023ZM42.3335 60.051C42.0054 60.1825 41.833 60.1568 41.7465 60.1198C41.6601 60.0828 41.5225 59.9759 41.391 59.6477L40.232 60.1122C40.435 60.619 40.7571 61.0546 41.2554 61.2678C41.7537 61.481 42.2912 61.4131 42.798 61.21L42.3335 60.051ZM41.391 59.6477C41.3374 59.514 41.335 59.3922 41.3866 59.2515C41.4443 59.0942 41.5808 58.8876 41.8558 58.6386L41.0178 57.7131C40.6528 58.0435 40.3651 58.4107 40.2144 58.8214C40.0576 59.2488 40.0625 59.6893 40.232 60.1122L41.391 59.6477ZM41.8558 58.6386C42.5537 58.0067 43.2645 57.1028 43.9922 55.9529L42.9371 55.2852C42.2409 56.3854 41.5997 57.1861 41.0178 57.7131L41.8558 58.6386ZM43.9922 55.9529C44.6992 54.8356 45.7102 53.3044 47.0273 51.3568L45.993 50.6574C44.6733 52.6088 43.6541 54.1522 42.9371 55.2852L43.9922 55.9529ZM47.0273 51.3568C48.329 49.4318 50.0162 47.2503 52.0926 44.8108L51.1418 44.0015C49.0455 46.4642 47.3279 48.6833 45.993 50.6574L47.0273 51.3568ZM52.0909 44.8129C53.1366 43.595 54.0653 42.632 54.8779 41.9165C55.6967 41.1957 56.3685 40.7523 56.8994 40.5395L56.435 39.3805C55.7134 39.6697 54.9174 40.2182 54.0528 40.9794C53.1821 41.746 52.212 42.7552 51.1436 43.9995L52.0909 44.8129ZM56.8994 40.5395C58.1435 40.041 59.2991 39.9514 60.3872 40.2341C61.4815 40.5183 62.5616 41.1932 63.6229 42.314L64.5295 41.4554C63.3512 40.2112 62.0766 39.3829 60.7012 39.0256C59.3197 38.6667 57.8905 38.7973 56.435 39.3805L56.8994 40.5395ZM93.1745 38.8004L93.3636 38.2055L93.1745 38.8004ZM94.2031 41.0046L93.714 40.6167L93.7077 40.6246L93.7016 40.6328L94.2031 41.0046ZM91.7649 41.6909L91.4115 42.2056L91.4316 42.2194L91.4527 42.2316L91.7649 41.6909ZM91.7948 39.3475C92.0628 39.2401 92.4425 39.2228 92.9854 39.3954L93.3636 38.2055C92.648 37.978 91.953 37.939 91.3304 38.1885L91.7948 39.3475ZM92.9854 39.3954C93.5074 39.5613 93.721 39.7872 93.8066 40.0007L94.9656 39.5363C94.6942 38.8591 94.1001 38.4396 93.3636 38.2055L92.9854 39.3954ZM93.8066 40.0007C93.9009 40.236 93.8765 40.4117 93.714 40.6167L94.6922 41.3926C95.1305 40.8399 95.2282 40.1915 94.9656 39.5363L93.8066 40.0007ZM93.7016 40.6328C93.5012 40.903 93.2375 41.1066 92.894 41.2442L93.3585 42.4032C93.9056 42.184 94.3598 41.8415 94.7046 41.3764L93.7016 40.6328ZM92.894 41.2442C92.6482 41.3427 92.3948 41.3338 92.0771 41.1503L91.4527 42.2316C92.0595 42.582 92.7136 42.6616 93.3585 42.4032L92.894 41.2442ZM92.1182 41.1763C91.7678 40.9356 91.5325 40.6418 91.3916 40.2901L90.2326 40.7545C90.4708 41.3491 90.8707 41.8343 91.4115 42.2056L92.1182 41.1763ZM91.3916 40.2901C91.2601 39.9619 91.2857 39.7896 91.3227 39.7031C91.3597 39.6166 91.4667 39.479 91.7948 39.3475L91.3304 38.1885C90.8236 38.3916 90.388 38.7137 90.1748 39.2119C89.9616 39.7102 90.0295 40.2477 90.2326 40.7545L91.3916 40.2901Z" fill="#04093A" mask="url(#path-3-outside-1_57_77)"/>
</svg>
