<svg width="118" height="120" viewBox="0 0 118 120" fill="none" xmlns="http://www.w3.org/2000/svg">
<rect width="118" height="120" rx="30" fill="#303030"/>
<path d="M8 84.3488C8 81.3948 10.3948 79 13.3488 79H32.6512C35.6052 79 38 81.3948 38 84.3488V104.651C38 107.605 35.6052 110 32.6512 110H29C17.402 110 8 100.598 8 89V84.3488Z" fill="white"/>
<rect x="8" y="43" width="30" height="32" rx="5.34884" fill="white"/>
<path d="M8 32C8 18.7452 18.7452 8 32 8H32.6512C35.6052 8 38 10.3948 38 13.3488V33.6512C38 36.6052 35.6052 39 32.6512 39H13.3488C10.3948 39 8 36.6052 8 33.6512V32Z" fill="white"/>
<rect x="44" y="43" width="29" height="32" rx="5.34884" fill="white"/>
<rect x="44" y="79" width="29" height="31" rx="5.34884" fill="white"/>
<path d="M79 84.3488C79 81.3948 81.3948 79 84.3488 79H104.711C107.632 79 110 81.3681 110 84.2893C110 98.4889 98.4889 110 84.2893 110C81.3681 110 79 107.632 79 104.711V84.3488Z" fill="white"/>
</svg>
