<svg width="118" height="120" viewBox="0 0 118 120" fill="none" xmlns="http://www.w3.org/2000/svg">
<g clip-path="url(#clip0_53_51)">
<rect width="118" height="120" rx="30" fill="#000743"/>
<path d="M-0.000396729 146.382V29.9342H118V146.382H-0.000396729Z" fill="#61C6FF"/>
<path d="M116.69 30H-0.691154C-3.4997 30 -4.76838 33.5139 -2.6076 35.3081L5.08079 41.6919C6.52553 42.8915 6.52553 45.1085 5.08079 46.3081L-2.6076 52.6919C-4.76838 54.4861 -3.4997 58 -0.691154 58H116.69C119.499 58 120.768 54.4861 118.607 52.6919L110.918 46.3081C109.474 45.1085 109.474 42.8915 110.918 41.6919L118.607 35.3081C120.768 33.5139 119.499 30 116.69 30Z" fill="white"/>
<path d="M86.9464 67.1973C86.9464 59.7852 84.002 52.6767 78.7608 47.4356C73.5197 42.1944 66.4112 39.25 58.9991 39.25C51.587 39.25 44.4784 42.1944 39.2373 47.4356C33.9961 52.6767 31.0517 59.7852 31.0517 67.1973H37.6157C37.6157 61.5261 39.8686 56.0872 43.8787 52.077C47.8889 48.0669 53.3278 45.814 58.9991 45.814C64.6703 45.814 70.1092 48.0669 74.1194 52.077C78.1296 56.0872 80.3824 61.5261 80.3824 67.1973H86.9464Z" fill="#61C6FF"/>
<path d="M86.9464 42.3552C86.9464 34.9431 84.002 27.8346 78.7608 22.5935C73.5197 17.3523 66.4112 14.4079 58.9991 14.4079C51.587 14.4079 44.4784 17.3523 39.2373 22.5935C33.9961 27.8346 31.0517 34.9431 31.0517 42.3552H37.6157C37.6157 36.684 39.8686 31.2451 43.8787 27.2349C47.8889 23.2247 53.3278 20.9719 58.9991 20.9719C64.6703 20.9719 70.1092 23.2248 74.1194 27.2349C78.1296 31.2451 80.3824 36.684 80.3824 42.3552H86.9464Z" fill="white"/>
</g>
<defs>
<clipPath id="clip0_53_51">
<rect width="118" height="120" rx="30" fill="white"/>
</clipPath>
</defs>
</svg>
