<svg width="20" height="20" viewBox="0 0 20 20" fill="none" xmlns="http://www.w3.org/2000/svg">
<g clip-path="url(#clip0_210_441)">
<path d="M19.1667 20H0.833333C0.375 20 0 19.625 0 19.1667C0 18.7084 0.375 18.3334 0.833333 18.3334H19.1667C19.625 18.3334 20 18.7084 20 19.1667C20 19.625 19.625 20 19.1667 20ZM12.3083 15.7167L17.6 10.0917C18.325 9.3667 18.5333 8.33337 18.1417 7.3917C17.75 6.45003 16.875 5.85837 15.85 5.85003H14.1667V2.4917C14.175 1.10003 13.0333 -0.00830078 11.65 -0.00830078H8.33333C6.95 -0.00830078 5.83333 1.10837 5.83333 2.4917V5.82503H4.275C3.3 5.82503 2.35833 6.33337 1.93333 7.20837C1.45833 8.1917 1.65 9.30003 2.38333 10.0417L7.625 15.7084C8.26667 16.35 9.11667 16.675 9.96667 16.675C10.8167 16.675 11.6583 16.35 12.3083 15.7084V15.7167Z" fill="white"/>
</g>
<defs>
<clipPath id="clip0_210_441">
<rect width="20" height="20" fill="white"/>
</clipPath>
</defs>
</svg>
