<svg width="575" height="97" viewBox="0 0 575 97" fill="none" xmlns="http://www.w3.org/2000/svg">
<path d="M97.8272 15.5416L98.1729 48.5865L59.9693 10.5111C55.3019 4.70008 42.5097 -0.247478 34.2985 8.42956C24.9419 18.317 29.5447 28.7248 33.4342 32.4543L49.2515 48.5865H23.9265C15.1967 48.5865 0.356751 40.7806 1.0216 24.0413C1.78221 4.8909 16.6661 0.190025 23.9265 0.103293C38.0728 0.42131 70.5142 -0.243637 81.4912 0.103291C93.4029 0.479755 97.8272 9.38361 97.8272 15.5416Z" fill="#0C1DB5"/>
<path d="M0.34568 81.5137L-5.34058e-05 48.5864L38.2036 86.5263C42.871 92.3166 55.6632 97.2466 63.8743 88.6004C73.2309 78.7482 68.6282 68.3774 64.7387 64.6612L48.9213 48.5864H74.2464C82.9762 48.5864 97.8161 56.3645 97.1513 73.0442C96.3906 92.1265 81.5068 96.8107 74.2464 96.8971C60.1001 96.5802 27.6587 97.2428 16.6816 96.8971C4.76997 96.522 0.34568 87.6498 0.34568 81.5137Z" fill="#0C1DB5"/>
<path d="M517.598 5.93765H516.098V7.43765V90.5107V92.0107H517.598H571.249H572.749V90.5107V80.0072V78.5072H571.249H531.034V53.8162H561.104H562.604V52.3162V42.2901V40.7901H561.104H531.034V19.3218H571.249H572.749V17.8218V7.43765V5.93765H571.249H517.598Z" fill="white" stroke="white" stroke-width="3"/>
<path d="M444.956 17.9411V19.4411H446.456H469.961V90.5107V92.0107H471.461H483.397H484.897V90.5107V19.4411H508.403H509.903V17.9411V7.43765V5.93765H508.403H446.456H444.956V7.43765V17.9411Z" fill="white" stroke="white" stroke-width="3"/>
<path d="M401.931 5.93765H400.935L400.548 6.85481L365.517 89.9279L364.639 92.0107H366.899H379.074H380.089L380.466 91.0678L388.444 71.1231H423.297L431.334 91.0712L431.712 92.0107H432.725H445.138H447.399L446.52 89.9279L411.489 6.85481L411.102 5.93765H410.107H401.931ZM393.527 58.5745L405.926 27.7021L418.275 58.5745H393.527Z" fill="white" stroke="white" stroke-width="3"/>
<path d="M308.946 5.93765H307.446V7.43765V90.5107V92.0107H308.946H320.882H322.382V90.5107V61.5745H330.262C332.301 69.6996 336.054 76.5308 341.541 82.0194C348.109 88.6685 356.111 92.0107 365.462 92.0107H368.148H369.648V90.5107V78.933V77.0474L367.81 77.4714C366.987 77.6615 365.377 77.7516 362.84 77.673C361.627 77.6057 359.976 77.1091 357.837 76.0397L357.831 76.0365L357.825 76.0334C351.91 73.1455 347.533 68.0247 344.759 60.4822C351.05 59.0529 356.155 56.3806 359.979 52.4006C362.157 50.1371 363.832 47.4367 365.012 44.3212C366.251 41.1554 366.843 37.3599 366.843 32.9802C366.843 28.4899 365.989 24.4056 364.25 20.757L364.25 20.757L364.244 20.7456C359.339 10.6773 348.477 5.93765 332.519 5.93765H308.946ZM341.561 19.6116L341.562 19.612C344.963 20.6714 347.391 22.3392 348.982 24.5472C350.576 26.7589 351.429 29.6521 351.429 33.3383C351.429 38.9311 349.797 42.7658 346.797 45.1796C343.723 47.6527 338.8 49.0258 331.743 49.0258H322.382V18.4863H332.758C336.277 18.4863 339.201 18.874 341.561 19.6116Z" fill="white" stroke="white" stroke-width="3"/>
<path d="M242.459 5.93765H240.959V7.43765V90.5107V92.0107H242.459H254.395H255.895V90.5107V61.5745H267.584C276.991 61.5745 284.682 59.4563 290.508 55.0658L290.513 55.0618C293.53 52.7671 295.923 49.8391 297.691 46.303C299.489 42.7062 300.356 38.4464 300.356 33.577C300.356 28.711 299.51 24.4224 297.763 20.757L297.763 20.757L297.757 20.7456C292.852 10.6773 281.99 5.93765 266.032 5.93765H242.459ZM275.074 19.6116L275.075 19.612C278.476 20.6714 280.904 22.3392 282.495 24.5472C284.088 26.7589 284.942 29.6521 284.942 33.3383C284.942 38.9311 283.31 42.7658 280.31 45.1796C277.236 47.6527 272.313 49.0258 265.256 49.0258H255.895V18.4863H266.271C269.79 18.4863 272.713 18.874 275.074 19.6116Z" fill="white" stroke="white" stroke-width="3"/>
<path d="M215.957 5.93765H214.457V7.43765V90.5107V92.0107H215.957H227.892H229.392V90.5107V7.43765V5.93765H227.892H215.957Z" fill="white" stroke="white" stroke-width="3"/>
<path d="M197.539 85.9483L197.543 85.9459C200.576 83.7972 202.864 81.25 204.343 78.2909L204.347 78.2831C205.802 75.3314 206.531 72.2001 206.531 68.9069C206.531 65.6513 206.01 62.7834 204.906 60.3532C203.826 57.9363 202.166 55.5903 199.969 53.3095C197.702 50.9146 193.857 48.493 188.606 46.0081C188.606 46.0077 188.605 46.0074 188.604 46.007L172.917 38.5513C172.916 38.5508 172.915 38.5502 172.914 38.5497C168.733 36.5377 166.023 34.8383 164.614 33.4702C163.131 31.9483 162.368 30.0331 162.368 27.6091C162.368 25.3553 163.428 23.4911 165.894 21.9627C167.248 21.1294 169.198 20.4009 171.814 19.8237L171.822 19.8219L171.83 19.8201C174.398 19.2247 178.629 18.904 184.621 18.904C190.578 18.904 195.934 19.4529 200.699 20.5376L202.532 20.9549V19.075V7.67636V6.31421L201.176 6.1833C195.351 5.62086 188.936 5.34085 181.935 5.34085C170.99 5.34085 162.323 7.43624 156.123 11.8229L156.122 11.8238C150.425 15.8627 147.492 21.2573 147.492 27.9075C147.492 34.3226 150.035 39.9526 154.992 44.7415L154.993 44.7429C157.364 47.0268 161.266 49.3984 166.557 51.8835L166.564 51.8868L166.571 51.8901L181.847 58.8719C185.56 60.5736 188.303 62.4053 190.158 64.3309C191.09 65.3241 191.655 66.8175 191.655 69.0263C191.655 71.5651 190.39 73.7145 187.428 75.4993C185.82 76.4635 183.62 77.2916 180.773 77.9464C177.989 78.5468 173.706 78.8653 167.851 78.8653C162.075 78.8653 156.337 78.2215 150.636 76.9328L148.805 76.519V78.3959V89.9736V91.3089L150.131 91.4635C156.673 92.226 163.156 92.6075 169.581 92.6075C176.065 92.6075 181.607 92.0447 186.181 90.891L186.193 90.8878C190.731 89.7024 194.529 88.0682 197.539 85.9483Z" fill="white" stroke="white" stroke-width="3"/>
<path fill-rule="evenodd" clip-rule="evenodd" d="M514.598 4.43765H574.249V20.8218H532.534V39.2901H564.104V55.3162H532.534V77.0072H574.249V93.5107H514.598V4.43765ZM529.534 80.0072V52.3162H561.104V42.2901H529.534V17.8218H571.249V7.43765H517.598V90.5107H571.249V80.0072H529.534Z" fill="white"/>
<path fill-rule="evenodd" clip-rule="evenodd" d="M443.456 20.9411V4.43765H511.403V20.9411H486.397V93.5107H468.461V20.9411H443.456ZM471.461 17.9411V90.5107H483.397V17.9411H508.403V7.43765H446.456V17.9411H471.461Z" fill="white"/>
<path fill-rule="evenodd" clip-rule="evenodd" d="M399.94 4.43765H412.097L449.659 93.5107H430.699L422.285 72.6231H389.46L381.105 93.5107H362.378L363.662 90.4669C364.256 90.4961 364.856 90.5107 365.462 90.5107H379.074L387.429 69.6231H424.31L432.725 90.5107H445.138L410.107 7.43765H401.931L368.148 87.5501V79.8293L399.94 4.43765ZM405.929 23.6703L391.308 60.0745H420.491L405.929 23.6703ZM405.923 31.7338L395.746 57.0745H416.06L405.923 31.7338Z" fill="white"/>
<path fill-rule="evenodd" clip-rule="evenodd" d="M305.946 4.43765H332.519C348.719 4.43765 360.318 9.26189 365.593 20.0886L365.598 20.1L365.604 20.1115C367.451 23.9871 368.343 28.2965 368.343 32.9802C368.343 37.483 367.736 41.4734 366.411 44.8608C365.165 48.1476 363.387 51.0217 361.061 53.4398C357.351 57.3012 352.543 59.9635 346.779 61.5251C349.452 67.9111 353.388 72.1978 358.483 74.6855L358.496 74.6917L358.508 74.6981C360.555 75.7213 361.987 76.1195 362.906 76.1743C365.431 76.2518 366.86 76.1514 367.473 76.0098L371.148 75.1619V80.436L368.148 87.5501V78.933C367.471 79.0891 366.471 79.1772 365.148 79.1972C364.448 79.2077 363.657 79.1992 362.776 79.1717C361.265 79.0921 359.395 78.4954 357.167 77.3814C351.169 74.4531 346.72 69.3975 343.819 62.2145C343.449 61.2971 343.104 60.3451 342.784 59.3583C343.797 59.1699 344.777 58.951 345.726 58.7015C351.185 57.2656 355.575 54.8189 358.897 51.3613C360.926 49.2527 362.498 46.7263 363.612 43.7821C364.766 40.838 365.343 37.2373 365.343 32.9802C365.343 28.6833 364.527 24.8241 362.896 21.4025C358.36 12.0926 348.235 7.43765 332.519 7.43765H308.946V90.5107H320.882V60.0745H331.445C333.355 68.4693 337.075 75.4318 342.605 80.9621C348.817 87.2532 356.332 90.4356 365.148 90.5094C365.252 90.5103 365.357 90.5107 365.462 90.5107H371.148V93.5107H365.462C355.711 93.5107 347.325 90.009 340.476 83.0761C335.041 77.6377 331.262 70.9424 329.105 63.0745H323.882V93.5107H305.946V4.43765ZM341.116 21.0441L341.113 21.0433C338.939 20.3639 336.176 19.9863 332.758 19.9863H323.882V47.5258H331.743C338.655 47.5258 343.171 46.1721 345.857 44.011C348.395 41.9683 349.929 38.6355 349.929 33.3383C349.929 29.8848 349.132 27.321 347.765 25.424C346.404 23.5345 344.278 22.0291 341.116 21.0441ZM331.743 50.5258C338.945 50.5258 344.276 49.1333 347.737 46.3483C351.199 43.5633 352.929 39.2266 352.929 33.3383C352.929 25.5005 349.289 20.4477 342.008 18.1799C339.462 17.3841 336.378 16.9863 332.758 16.9863H320.882V50.5258H331.743Z" fill="white"/>
<path fill-rule="evenodd" clip-rule="evenodd" d="M239.459 4.43765H266.032C282.232 4.43765 293.831 9.26189 299.106 20.0886L299.111 20.1L299.117 20.1115C300.98 24.0208 301.856 28.5396 301.856 33.577C301.856 38.621 300.958 43.1222 299.032 46.9738C297.167 50.704 294.631 53.8148 291.421 56.2557L291.411 56.2637C285.25 60.907 277.208 63.0745 267.584 63.0745H257.395V93.5107H239.459V4.43765ZM254.395 60.0745H267.584C276.774 60.0745 284.115 58.0056 289.605 53.8679C292.43 51.7194 294.678 48.9742 296.349 45.6322C298.02 42.2901 298.856 38.2718 298.856 33.577C298.856 28.8823 298.04 24.8241 296.409 21.4025C291.873 12.0926 281.748 7.43765 266.032 7.43765H242.459V90.5107H254.395V60.0745ZM274.629 21.0441L274.626 21.0433C272.452 20.3639 269.689 19.9863 266.271 19.9863H257.395V47.5258H265.256C272.168 47.5258 276.684 46.1721 279.37 44.011C281.908 41.9683 283.442 38.6355 283.442 33.3383C283.442 29.8848 282.645 27.321 281.278 25.424C279.917 23.5345 277.791 22.0291 274.629 21.0441ZM254.395 50.5258V16.9863H266.271C269.891 16.9863 272.975 17.3841 275.521 18.1799C282.802 20.4477 286.442 25.5005 286.442 33.3383C286.442 39.2266 284.712 43.5633 281.25 46.3483C277.789 49.1333 272.458 50.5258 265.256 50.5258H254.395Z" fill="white"/>
<path fill-rule="evenodd" clip-rule="evenodd" d="M212.957 4.43765H230.892V93.5107H212.957V4.43765ZM215.957 7.43765V90.5107H227.892V7.43765H215.957Z" fill="white"/>
<path fill-rule="evenodd" clip-rule="evenodd" d="M198.41 87.1699L198.403 87.1747C195.207 89.4252 191.231 91.122 186.572 92.3391L186.56 92.3423L186.548 92.3454C181.817 93.5388 176.143 94.1075 169.581 94.1075C163.097 94.1075 156.555 93.7225 149.958 92.9534L147.305 92.6442V74.6421L150.967 75.4697C156.561 76.7341 162.187 77.3653 167.851 77.3653C173.674 77.3653 177.824 77.0466 180.447 76.4821C183.196 75.8491 185.229 75.0686 186.654 74.2144C189.277 72.6341 190.155 70.9213 190.155 69.0263C190.155 67.0776 189.662 65.9988 189.07 65.3637C187.389 63.6213 184.828 61.8883 181.224 60.2362C181.223 60.2359 181.223 60.2357 181.222 60.2355L165.933 53.2479L165.919 53.2412C160.589 50.7377 156.505 48.2821 153.953 45.823L153.95 45.8203C148.731 40.7781 145.992 34.7697 145.992 27.9075C145.992 20.7341 149.192 14.8982 155.254 10.6001L155.256 10.5984C161.809 5.96275 170.828 3.84085 181.935 3.84085C188.975 3.84085 195.439 4.12237 201.321 4.69024L204.032 4.95206V22.8347L200.366 22.0002C195.73 20.9448 190.488 20.404 184.621 20.404C178.645 20.404 174.559 20.7271 172.169 21.2813L172.153 21.285L172.137 21.2885C169.61 21.8459 167.84 22.527 166.682 23.2387C164.576 24.5448 163.868 25.9657 163.868 27.6091C163.868 29.6711 164.498 31.195 165.674 32.4086C166.903 33.5952 169.42 35.2034 173.562 37.1967C173.564 37.1976 173.566 37.1986 173.568 37.1996L189.246 44.6512C189.247 44.6519 189.249 44.6526 189.25 44.6533C194.539 47.1567 198.59 49.6725 201.054 52.2736C203.339 54.6472 205.109 57.1312 206.274 59.7367C207.486 62.4089 208.031 65.4987 208.031 68.9069C208.031 72.4298 207.249 75.7879 205.693 78.9461L205.689 78.9539L205.685 78.9617C204.079 82.1745 201.612 84.9017 198.41 87.1699ZM198.884 54.3453C196.815 52.157 193.174 49.8296 187.963 47.3628L172.267 39.903C168.05 37.8739 165.145 36.0835 163.554 34.5319C161.763 32.7017 160.868 30.3941 160.868 27.6091C160.868 24.7445 162.281 22.4369 165.105 20.6864C166.657 19.7315 168.786 18.9557 171.491 18.3589C174.236 17.7223 178.613 17.404 184.621 17.404C189.461 17.404 193.931 17.7608 198.032 18.4744C199.055 18.6524 200.055 18.8526 201.032 19.075V7.67636C195.263 7.11935 188.897 6.84085 181.935 6.84085C171.153 6.84085 162.838 8.90972 156.989 13.0475C151.658 16.8271 148.992 21.7805 148.992 27.9075C148.992 33.8754 151.34 39.1272 156.034 43.6627C158.223 45.7714 161.943 48.0591 167.194 50.5258L182.472 57.5083C186.292 59.2588 189.216 61.1885 191.245 63.2971C192.518 64.6498 193.155 66.5596 193.155 69.0263C193.155 72.2092 191.503 74.7953 188.201 76.7846C186.411 77.8588 184.044 78.7341 181.099 79.4104C178.155 80.047 173.739 80.3653 167.851 80.3653C162.975 80.3653 158.126 79.9152 153.305 79.0149C152.304 78.828 151.304 78.6217 150.305 78.3959V89.9736C156.79 90.7295 163.216 91.1075 169.581 91.1075C175.987 91.1075 181.398 90.5505 185.814 89.4365C190.23 88.2827 193.851 86.7111 196.676 84.7218C199.54 82.6928 201.649 80.3255 203.002 77.6201C204.354 74.8748 205.031 71.9705 205.031 68.9069C205.031 65.8036 204.533 63.1579 203.539 60.9696C202.544 58.7416 200.992 56.5335 198.884 54.3453Z" fill="white"/>
</svg>
