<svg width="590" height="195" viewBox="0 0 590 195" fill="none" xmlns="http://www.w3.org/2000/svg">
<rect x="590.351" y="4.55103" width="193.71" height="588.551" transform="rotate(90.35 590.351 4.55103)" fill="url(#paint0_linear_158_18)"/>
<rect x="36" y="23" width="523" height="80.8586" rx="12.903" fill="white"/>
<path d="M68.971 55.5427V70.5039H65.8986V55.5427H68.971ZM73.5744 55.5427V57.9575H61.3671V55.5427H73.5744ZM72.0442 65.0579V64.8421C72.0442 64.0269 72.1607 63.2768 72.3936 62.5917C72.6265 61.8999 72.9656 61.3004 73.4109 60.7935C73.8561 60.2866 74.4042 59.8927 75.0549 59.6118C75.7057 59.3241 76.4524 59.1803 77.295 59.1803C78.1376 59.1803 78.8877 59.3241 79.5454 59.6118C80.203 59.8927 80.7544 60.2866 81.1997 60.7935C81.6518 61.3004 81.9944 61.8999 82.2273 62.5917C82.4602 63.2768 82.5766 64.0269 82.5766 64.8421V65.0579C82.5766 65.8662 82.4602 66.6163 82.2273 67.3082C81.9944 67.9932 81.6518 68.5927 81.1997 69.1064C80.7544 69.6134 80.2064 70.0073 79.5556 70.2881C78.9048 70.569 78.1582 70.7094 77.3156 70.7094C76.473 70.7094 75.7229 70.569 75.0652 70.2881C74.4144 70.0073 73.863 69.6134 73.4109 69.1064C72.9656 68.5927 72.6265 67.9932 72.3936 67.3082C72.1607 66.6163 72.0442 65.8662 72.0442 65.0579ZM75.0036 64.8421V65.0579C75.0036 65.5237 75.0447 65.9587 75.1269 66.3629C75.2091 66.767 75.3392 67.1233 75.5173 67.4315C75.7023 67.7329 75.9421 67.9693 76.2366 68.1405C76.5312 68.3118 76.8908 68.3974 77.3156 68.3974C77.7266 68.3974 78.0794 68.3118 78.3739 68.1405C78.6685 67.9693 78.9048 67.7329 79.083 67.4315C79.2611 67.1233 79.3912 66.767 79.4734 66.3629C79.5625 65.9587 79.607 65.5237 79.607 65.0579V64.8421C79.607 64.39 79.5625 63.9652 79.4734 63.5679C79.3912 63.1637 79.2576 62.8075 79.0727 62.4993C78.8946 62.1841 78.6582 61.9375 78.3637 61.7594C78.0691 61.5813 77.7129 61.4923 77.295 61.4923C76.8771 61.4923 76.5209 61.5813 76.2264 61.7594C75.9386 61.9375 75.7023 62.1841 75.5173 62.4993C75.3392 62.8075 75.2091 63.1637 75.1269 63.5679C75.0447 63.9652 75.0036 64.39 75.0036 64.8421ZM88.9997 59.3858V61.482H82.5261V59.3858H88.9997ZM84.1291 56.6422H87.0884V67.1541C87.0884 67.476 87.1295 67.7227 87.2117 67.8939C87.3008 68.0652 87.4309 68.1851 87.6022 68.2536C87.7735 68.3152 87.9893 68.346 88.2496 68.346C88.4345 68.346 88.5989 68.3392 88.7428 68.3255C88.8935 68.3049 89.0202 68.2844 89.123 68.2638L89.1333 70.4423C88.8798 70.5245 88.6058 70.5895 88.3112 70.6375C88.0167 70.6854 87.6913 70.7094 87.335 70.7094C86.6843 70.7094 86.1157 70.6032 85.6293 70.3909C85.1498 70.1717 84.7799 69.8223 84.5195 69.3428C84.2592 68.8632 84.1291 68.233 84.1291 67.4521V56.6422ZM95.844 67.9967V63.0439C95.844 62.6876 95.7858 62.3828 95.6693 62.1293C95.5529 61.869 95.3713 61.6669 95.1247 61.5231C94.885 61.3792 94.5733 61.3073 94.1897 61.3073C93.8608 61.3073 93.5765 61.3655 93.3368 61.482C93.097 61.5916 92.9121 61.7526 92.7819 61.9649C92.6517 62.1704 92.5867 62.4136 92.5867 62.6945H89.6273C89.6273 62.2218 89.7369 61.7731 89.9561 61.3484C90.1753 60.9237 90.4939 60.5503 90.9118 60.2284C91.3296 59.8995 91.8263 59.6427 92.4017 59.4577C92.984 59.2727 93.6348 59.1803 94.3541 59.1803C95.2172 59.1803 95.9844 59.3241 96.6558 59.6118C97.3271 59.8995 97.8546 60.3311 98.2382 60.9065C98.6287 61.482 98.8239 62.2013 98.8239 63.0644V67.822C98.8239 68.4317 98.8616 68.9317 98.937 69.3222C99.0123 69.7058 99.1219 70.0415 99.2658 70.3292V70.5039H96.2756C96.1317 70.2025 96.0221 69.8257 95.9468 69.3736C95.8783 68.9146 95.844 68.4556 95.844 67.9967ZM96.2345 63.7323L96.255 65.4072H94.6007C94.2102 65.4072 93.8711 65.4518 93.5834 65.5408C93.2957 65.6299 93.0593 65.7566 92.8744 65.921C92.6894 66.0786 92.5524 66.2635 92.4634 66.4759C92.3812 66.6883 92.3401 66.9212 92.3401 67.1746C92.3401 67.4281 92.3983 67.6576 92.5147 67.8631C92.6312 68.0618 92.799 68.2193 93.0182 68.3358C93.2375 68.4454 93.4943 68.5002 93.7889 68.5002C94.2342 68.5002 94.6212 68.4111 94.95 68.233C95.2789 68.0549 95.5323 67.8357 95.7104 67.5754C95.8954 67.3151 95.9913 67.0684 95.9982 66.8355L96.7791 68.0892C96.6695 68.37 96.5188 68.6612 96.327 68.9626C96.142 69.264 95.9057 69.5483 95.618 69.8154C95.3302 70.0758 94.9843 70.2915 94.5801 70.4628C94.176 70.6272 93.6964 70.7094 93.1415 70.7094C92.436 70.7094 91.7955 70.569 91.22 70.2881C90.6514 70.0004 90.1993 69.6065 89.8636 69.1064C89.5348 68.5995 89.3704 68.0241 89.3704 67.3801C89.3704 66.7979 89.48 66.2807 89.6992 65.8285C89.9185 65.3764 90.2404 64.9962 90.6651 64.6879C91.0967 64.3728 91.6345 64.1365 92.2784 63.9789C92.9223 63.8145 93.669 63.7323 94.5185 63.7323H96.2345ZM103.387 54.7207V70.5039H100.417V54.7207H103.387ZM115.956 68.0789V54.7207H118.936V70.5039H116.254L115.956 68.0789ZM108.927 65.0784V64.8626C108.927 64.0132 109.023 63.2425 109.215 62.5506C109.407 61.8519 109.688 61.2525 110.058 60.7524C110.427 60.2523 110.883 59.8653 111.424 59.5913C111.965 59.3173 112.582 59.1803 113.274 59.1803C113.925 59.1803 114.493 59.3173 114.98 59.5913C115.473 59.8653 115.891 60.2558 116.233 60.7627C116.583 61.2628 116.863 61.8553 117.076 62.5404C117.288 63.2185 117.442 63.9618 117.538 64.7702V65.2428C117.442 66.0169 117.288 66.7362 117.076 67.4007C116.863 68.0652 116.583 68.6475 116.233 69.1475C115.891 69.6408 115.473 70.0244 114.98 70.2984C114.486 70.5724 113.911 70.7094 113.253 70.7094C112.561 70.7094 111.945 70.569 111.404 70.2881C110.869 70.0073 110.417 69.6134 110.047 69.1064C109.684 68.5995 109.407 68.0035 109.215 67.3185C109.023 66.6335 108.927 65.8868 108.927 65.0784ZM111.887 64.8626V65.0784C111.887 65.5374 111.921 65.9655 111.989 66.3629C112.065 66.7602 112.185 67.113 112.349 67.4212C112.52 67.7227 112.739 67.959 113.007 68.1303C113.281 68.2947 113.613 68.3769 114.003 68.3769C114.51 68.3769 114.928 68.2638 115.257 68.0378C115.586 67.8049 115.836 67.4863 116.007 67.0821C116.185 66.678 116.288 66.2122 116.315 65.6847V64.3386C116.295 63.907 116.233 63.52 116.13 63.1774C116.035 62.8281 115.891 62.5301 115.699 62.2835C115.514 62.0369 115.281 61.845 115 61.708C114.726 61.571 114.401 61.5025 114.024 61.5025C113.64 61.5025 113.311 61.5916 113.037 61.7697C112.763 61.941 112.541 62.1773 112.37 62.4787C112.205 62.7801 112.082 63.1363 112 63.5474C111.924 63.9515 111.887 64.39 111.887 64.8626ZM126.407 67.9967V63.0439C126.407 62.6876 126.349 62.3828 126.232 62.1293C126.116 61.869 125.934 61.6669 125.687 61.5231C125.448 61.3792 125.136 61.3073 124.752 61.3073C124.424 61.3073 124.139 61.3655 123.9 61.482C123.66 61.5916 123.475 61.7526 123.345 61.9649C123.215 62.1704 123.149 62.4136 123.149 62.6945H120.19C120.19 62.2218 120.3 61.7731 120.519 61.3484C120.738 60.9237 121.057 60.5503 121.475 60.2284C121.892 59.8995 122.389 59.6427 122.964 59.4577C123.547 59.2727 124.198 59.1803 124.917 59.1803C125.78 59.1803 126.547 59.3241 127.219 59.6118C127.89 59.8995 128.417 60.3311 128.801 60.9065C129.191 61.482 129.387 62.2013 129.387 63.0644V67.822C129.387 68.4317 129.424 68.9317 129.5 69.3222C129.575 69.7058 129.685 70.0415 129.829 70.3292V70.5039H126.838C126.694 70.2025 126.585 69.8257 126.51 69.3736C126.441 68.9146 126.407 68.4556 126.407 67.9967ZM126.797 63.7323L126.818 65.4072H125.163C124.773 65.4072 124.434 65.4518 124.146 65.5408C123.858 65.6299 123.622 65.7566 123.437 65.921C123.252 66.0786 123.115 66.2635 123.026 66.4759C122.944 66.6883 122.903 66.9212 122.903 67.1746C122.903 67.4281 122.961 67.6576 123.077 67.8631C123.194 68.0618 123.362 68.2193 123.581 68.3358C123.8 68.4454 124.057 68.5002 124.352 68.5002C124.797 68.5002 125.184 68.4111 125.513 68.233C125.842 68.0549 126.095 67.8357 126.273 67.5754C126.458 67.3151 126.554 67.0684 126.561 66.8355L127.342 68.0892C127.232 68.37 127.082 68.6612 126.89 68.9626C126.705 69.264 126.468 69.5483 126.181 69.8154C125.893 70.0758 125.547 70.2915 125.143 70.4628C124.739 70.6272 124.259 70.7094 123.704 70.7094C122.999 70.7094 122.358 70.569 121.783 70.2881C121.214 70.0004 120.762 69.6065 120.426 69.1064C120.098 68.5995 119.933 68.0241 119.933 67.3801C119.933 66.7979 120.043 66.2807 120.262 65.8285C120.481 65.3764 120.803 64.9962 121.228 64.6879C121.659 64.3728 122.197 64.1365 122.841 63.9789C123.485 63.8145 124.232 63.7323 125.081 63.7323H126.797ZM139.006 68.346L141.472 59.3858H144.565L140.815 70.5039H138.945L139.006 68.346ZM137.311 59.3858L139.787 68.3563L139.839 70.5039H137.958L134.208 59.3858H137.311ZM150.022 70.7094C149.159 70.7094 148.385 70.5724 147.7 70.2984C147.015 70.0175 146.433 69.6305 145.953 69.1373C145.481 68.644 145.118 68.072 144.864 67.4212C144.611 66.7636 144.484 66.0649 144.484 65.325V64.914C144.484 64.0714 144.604 63.3007 144.844 62.602C145.083 61.9033 145.426 61.297 145.871 60.7832C146.323 60.2695 146.871 59.8756 147.515 59.6016C148.159 59.3207 148.885 59.1803 149.694 59.1803C150.481 59.1803 151.18 59.3104 151.79 59.5707C152.4 59.831 152.91 60.201 153.321 60.6805C153.739 61.16 154.054 61.7354 154.266 62.4068C154.479 63.0713 154.585 63.8111 154.585 64.6263V65.8594H145.748V63.8865H151.677V63.6604C151.677 63.2494 151.601 62.8829 151.451 62.5609C151.307 62.2321 151.088 61.9718 150.793 61.78C150.499 61.5882 150.122 61.4923 149.663 61.4923C149.272 61.4923 148.937 61.5779 148.656 61.7491C148.375 61.9204 148.145 62.1602 147.967 62.4684C147.796 62.7767 147.666 63.1398 147.577 63.5576C147.495 63.9687 147.454 64.4208 147.454 64.914V65.325C147.454 65.7703 147.515 66.1813 147.639 66.5581C147.769 66.9349 147.95 67.2603 148.183 67.5343C148.423 67.8083 148.711 68.0206 149.046 68.1714C149.389 68.3221 149.776 68.3974 150.207 68.3974C150.742 68.3974 151.238 68.2947 151.697 68.0892C152.163 67.8768 152.564 67.5583 152.9 67.1335L154.338 68.6954C154.105 69.0311 153.787 69.353 153.383 69.6613C152.985 69.9696 152.506 70.223 151.944 70.4217C151.382 70.6135 150.742 70.7094 150.022 70.7094ZM158.326 61.7594V70.5039H155.367V59.3858H158.141L158.326 61.7594ZM157.894 64.5544H157.093C157.093 63.7323 157.199 62.9925 157.411 62.3348C157.624 61.6704 157.922 61.1052 158.305 60.6394C158.689 60.1667 159.145 59.8071 159.672 59.5605C160.206 59.307 160.802 59.1803 161.46 59.1803C161.981 59.1803 162.457 59.2556 162.888 59.4063C163.32 59.557 163.69 59.7968 163.998 60.1256C164.313 60.4544 164.553 60.8894 164.717 61.4306C164.889 61.9718 164.974 62.6328 164.974 63.4138V70.5039H161.994V63.4035C161.994 62.9103 161.926 62.5267 161.789 62.2526C161.652 61.9786 161.45 61.7868 161.183 61.6772C160.922 61.5608 160.6 61.5025 160.217 61.5025C159.819 61.5025 159.473 61.5813 159.179 61.7389C158.891 61.8964 158.651 62.1156 158.459 62.3965C158.275 62.6705 158.134 62.9925 158.038 63.3624C157.942 63.7323 157.894 64.1296 157.894 64.5544ZM172.949 68.0789V54.7207H175.929V70.5039H173.247L172.949 68.0789ZM165.92 65.0784V64.8626C165.92 64.0132 166.016 63.2425 166.208 62.5506C166.4 61.8519 166.681 61.2525 167.051 60.7524C167.421 60.2523 167.876 59.8653 168.417 59.5913C168.958 59.3173 169.575 59.1803 170.267 59.1803C170.918 59.1803 171.486 59.3173 171.973 59.5913C172.466 59.8653 172.884 60.2558 173.226 60.7627C173.576 61.2628 173.857 61.8553 174.069 62.5404C174.281 63.2185 174.435 63.9618 174.531 64.7702V65.2428C174.435 66.0169 174.281 66.7362 174.069 67.4007C173.857 68.0652 173.576 68.6475 173.226 69.1475C172.884 69.6408 172.466 70.0244 171.973 70.2984C171.479 70.5724 170.904 70.7094 170.246 70.7094C169.554 70.7094 168.938 70.569 168.397 70.2881C167.862 70.0073 167.41 69.6134 167.04 69.1064C166.677 68.5995 166.4 68.0035 166.208 67.3185C166.016 66.6335 165.92 65.8868 165.92 65.0784ZM168.88 64.8626V65.0784C168.88 65.5374 168.914 65.9655 168.982 66.3629C169.058 66.7602 169.178 67.113 169.342 67.4212C169.513 67.7227 169.733 67.959 170 68.1303C170.274 68.2947 170.606 68.3769 170.996 68.3769C171.503 68.3769 171.921 68.2638 172.25 68.0378C172.579 67.8049 172.829 67.4863 173 67.0821C173.178 66.678 173.281 66.2122 173.308 65.6847V64.3386C173.288 63.907 173.226 63.52 173.124 63.1774C173.028 62.8281 172.884 62.5301 172.692 62.2835C172.507 62.0369 172.274 61.845 171.993 61.708C171.719 61.571 171.394 61.5025 171.017 61.5025C170.633 61.5025 170.305 61.5916 170.031 61.7697C169.757 61.941 169.534 62.1773 169.363 62.4787C169.198 62.7801 169.075 63.1363 168.993 63.5474C168.917 63.9515 168.88 64.39 168.88 64.8626ZM183.4 67.9967V63.0439C183.4 62.6876 183.342 62.3828 183.225 62.1293C183.109 61.869 182.927 61.6669 182.681 61.5231C182.441 61.3792 182.129 61.3073 181.746 61.3073C181.417 61.3073 181.132 61.3655 180.893 61.482C180.653 61.5916 180.468 61.7526 180.338 61.9649C180.208 62.1704 180.143 62.4136 180.143 62.6945H177.183C177.183 62.2218 177.293 61.7731 177.512 61.3484C177.731 60.9237 178.05 60.5503 178.468 60.2284C178.885 59.8995 179.382 59.6427 179.958 59.4577C180.54 59.2727 181.191 59.1803 181.91 59.1803C182.773 59.1803 183.54 59.3241 184.212 59.6118C184.883 59.8995 185.41 60.3311 185.794 60.9065C186.185 61.482 186.38 62.2013 186.38 63.0644V67.822C186.38 68.4317 186.417 68.9317 186.493 69.3222C186.568 69.7058 186.678 70.0415 186.822 70.3292V70.5039H183.831C183.688 70.2025 183.578 69.8257 183.503 69.3736C183.434 68.9146 183.4 68.4556 183.4 67.9967ZM183.79 63.7323L183.811 65.4072H182.157C181.766 65.4072 181.427 65.4518 181.139 65.5408C180.852 65.6299 180.615 65.7566 180.43 65.921C180.245 66.0786 180.108 66.2635 180.019 66.4759C179.937 66.6883 179.896 66.9212 179.896 67.1746C179.896 67.4281 179.954 67.6576 180.071 67.8631C180.187 68.0618 180.355 68.2193 180.574 68.3358C180.793 68.4454 181.05 68.5002 181.345 68.5002C181.79 68.5002 182.177 68.4111 182.506 68.233C182.835 68.0549 183.088 67.8357 183.266 67.5754C183.451 67.3151 183.547 67.0684 183.554 66.8355L184.335 68.0892C184.225 68.37 184.075 68.6612 183.883 68.9626C183.698 69.264 183.462 69.5483 183.174 69.8154C182.886 70.0758 182.54 70.2915 182.136 70.4628C181.732 70.6272 181.252 70.7094 180.697 70.7094C179.992 70.7094 179.351 70.569 178.776 70.2881C178.207 70.0004 177.755 69.6065 177.42 69.1064C177.091 68.5995 176.926 68.0241 176.926 67.3801C176.926 66.7979 177.036 66.2807 177.255 65.8285C177.474 65.3764 177.796 64.9962 178.221 64.6879C178.653 64.3728 179.19 64.1365 179.834 63.9789C180.478 63.8145 181.225 63.7323 182.074 63.7323H183.79ZM192.352 64.6468V64.4208C192.352 62.9754 192.502 61.6635 192.804 60.4853C193.112 59.307 193.516 58.2726 194.016 57.382C194.523 56.4846 195.075 55.7414 195.671 55.1522C196.267 54.5631 196.859 54.1384 197.448 53.8781L198.013 55.44C197.623 55.7277 197.239 56.125 196.862 56.6319C196.486 57.132 196.143 57.7485 195.835 58.4815C195.534 59.2077 195.29 60.064 195.105 61.0504C194.92 62.03 194.828 63.1466 194.828 64.4002V64.6674C194.828 65.921 194.92 67.041 195.105 68.0275C195.29 69.0071 195.534 69.8634 195.835 70.5964C196.143 71.3362 196.486 71.9596 196.862 72.4665C197.239 72.9735 197.623 73.3742 198.013 73.6688L197.448 75.1896C196.859 74.9292 196.267 74.5045 195.671 73.9154C195.075 73.3331 194.523 72.5933 194.016 71.6959C193.516 70.8053 193.112 69.7709 192.804 68.5927C192.502 67.4075 192.352 66.0923 192.352 64.6468ZM198.918 55.5427H204.498C205.642 55.5427 206.625 55.714 207.447 56.0565C208.276 56.399 208.913 56.9059 209.358 57.5773C209.804 58.2486 210.026 59.0741 210.026 60.0537C210.026 60.8552 209.889 61.5436 209.615 62.1191C209.348 62.6876 208.968 63.1637 208.475 63.5474C207.988 63.9241 207.416 64.2255 206.759 64.4516L205.782 64.9654H200.932L200.912 62.5609H204.519C205.06 62.5609 205.508 62.465 205.865 62.2732C206.221 62.0814 206.488 61.8142 206.666 61.4717C206.851 61.1292 206.944 60.7319 206.944 60.2797C206.944 59.8002 206.855 59.3858 206.676 59.0364C206.498 58.687 206.228 58.4199 205.865 58.2349C205.502 58.0499 205.046 57.9575 204.498 57.9575H202.001V70.5039H198.918V55.5427ZM207.283 70.5039L203.871 63.8351L207.129 63.8145L210.581 70.36V70.5039H207.283ZM217.425 53.1691V56.2003H215.823V53.1691H217.425ZM217.23 69.949V72.7131H215.627V69.949H217.23ZM218.361 66.5786C218.361 66.1882 218.289 65.8559 218.145 65.5819C218.008 65.3079 217.782 65.0647 217.467 64.8524C217.158 64.64 216.74 64.4345 216.213 64.2358C215.322 63.8933 214.538 63.5302 213.86 63.1466C213.189 62.7561 212.664 62.2732 212.288 61.6978C211.911 61.1155 211.723 60.3791 211.723 59.4885C211.723 58.6391 211.925 57.9027 212.329 57.2793C212.733 56.6559 213.291 56.1764 214.004 55.8407C214.723 55.4982 215.559 55.3269 216.511 55.3269C217.237 55.3269 217.895 55.4365 218.484 55.6557C219.073 55.8681 219.58 56.1832 220.005 56.6011C220.429 57.0121 220.755 57.5156 220.981 58.1116C221.207 58.7076 221.32 59.3892 221.32 60.1564H218.371C218.371 59.7454 218.326 59.3823 218.237 59.0672C218.148 58.7521 218.018 58.4884 217.847 58.276C217.682 58.0636 217.484 57.9061 217.251 57.8033C217.018 57.6937 216.761 57.6389 216.48 57.6389C216.062 57.6389 215.72 57.7211 215.453 57.8855C215.185 58.0499 214.99 58.2726 214.867 58.5534C214.75 58.8275 214.692 59.1426 214.692 59.4988C214.692 59.8482 214.754 60.153 214.877 60.4133C215.007 60.6736 215.23 60.9134 215.545 61.1326C215.86 61.345 216.292 61.5642 216.84 61.7902C217.73 62.1328 218.511 62.5027 219.183 62.9C219.854 63.2973 220.378 63.7837 220.755 64.3591C221.132 64.9346 221.32 65.6675 221.32 66.5581C221.32 67.4418 221.114 68.1953 220.703 68.8187C220.292 69.4352 219.717 69.9079 218.977 70.2367C218.237 70.5587 217.381 70.7197 216.408 70.7197C215.778 70.7197 215.151 70.6375 214.528 70.4731C213.904 70.3018 213.339 70.0278 212.832 69.651C212.325 69.2743 211.921 68.7742 211.62 68.1508C211.318 67.5206 211.168 66.7465 211.168 65.8285H214.127C214.127 66.3286 214.192 66.7465 214.322 67.0821C214.452 67.411 214.624 67.6747 214.836 67.8734C215.055 68.0652 215.302 68.2022 215.576 68.2844C215.85 68.3666 216.127 68.4077 216.408 68.4077C216.847 68.4077 217.206 68.3289 217.487 68.1714C217.775 68.0138 217.991 67.798 218.135 67.524C218.285 67.2431 218.361 66.928 218.361 66.5786ZM227.702 64.4208V64.6468C227.702 66.0443 227.544 67.3322 227.229 68.5105C226.914 69.6819 226.496 70.7197 225.976 71.6239C225.462 72.535 224.897 73.292 224.28 73.8948C223.67 74.4977 223.061 74.9292 222.451 75.1896L221.876 73.6688C222.266 73.3811 222.646 72.9837 223.016 72.4768C223.393 71.9699 223.735 71.3465 224.044 70.6067C224.352 69.8737 224.595 69.014 224.773 68.0275C224.958 67.041 225.051 65.921 225.051 64.6674V64.4002C225.051 63.1466 224.958 62.0266 224.773 61.0401C224.588 60.0537 224.338 59.194 224.023 58.461C223.715 57.7211 223.372 57.1012 222.996 56.6011C222.626 56.0942 222.252 55.6968 221.876 55.4091L222.451 53.8781C223.061 54.1384 223.67 54.5734 224.28 55.1831C224.897 55.7859 225.462 56.5394 225.976 57.4437C226.496 58.3479 226.914 59.3892 227.229 60.5675C227.544 61.7389 227.702 63.0233 227.702 64.4208Z" fill="black"/>
<rect x="36" y="123.643" width="144.513" height="37.8487" rx="7.74178" fill="#C8C8C8"/>
<path d="M96.434 146.253V147.826H91.2257V146.253H96.434ZM91.8843 138.041V147.826H89.8682V138.041H91.8843ZM95.7552 142.026V143.558H91.2257V142.026H95.7552ZM96.4272 138.041V139.62H91.2257V138.041H96.4272ZM98.4976 140.554L99.7006 142.765L100.937 140.554H103L100.944 144.109L103.094 147.826H101.024L99.714 145.487L98.4036 147.826H96.3337L98.4842 144.109L96.4278 140.554H98.4976ZM106.26 146.448C106.498 146.448 106.708 146.403 106.892 146.314C107.076 146.22 107.219 146.09 107.322 145.924C107.429 145.754 107.485 145.554 107.49 145.326H109.311C109.307 145.836 109.17 146.291 108.901 146.69C108.632 147.084 108.272 147.396 107.819 147.624C107.367 147.848 106.86 147.96 106.3 147.96C105.736 147.96 105.243 147.866 104.822 147.678C104.405 147.49 104.058 147.23 103.78 146.898C103.503 146.562 103.294 146.172 103.155 145.729C103.016 145.281 102.947 144.802 102.947 144.291V144.096C102.947 143.581 103.016 143.101 103.155 142.658C103.294 142.21 103.503 141.82 103.78 141.488C104.058 141.152 104.405 140.89 104.822 140.702C105.239 140.514 105.727 140.42 106.287 140.42C106.883 140.42 107.405 140.534 107.853 140.763C108.305 140.991 108.659 141.318 108.915 141.744C109.174 142.165 109.307 142.664 109.311 143.242H107.49C107.485 143.001 107.434 142.781 107.335 142.584C107.241 142.387 107.102 142.23 106.919 142.113C106.739 141.992 106.518 141.932 106.253 141.932C105.971 141.932 105.74 141.992 105.561 142.113C105.382 142.23 105.243 142.391 105.145 142.597C105.046 142.799 104.977 143.03 104.936 143.289C104.9 143.545 104.882 143.814 104.882 144.096V144.291C104.882 144.573 104.9 144.844 104.936 145.104C104.972 145.364 105.039 145.595 105.138 145.796C105.241 145.998 105.382 146.157 105.561 146.273C105.74 146.39 105.973 146.448 106.26 146.448ZM111.926 137.503V147.826H109.984V137.503H111.926ZM117.276 146.085V140.554H119.211V147.826H117.39L117.276 146.085ZM117.491 144.593L118.062 144.58C118.062 145.064 118.006 145.514 117.894 145.931C117.782 146.343 117.614 146.701 117.39 147.006C117.166 147.306 116.884 147.541 116.543 147.711C116.203 147.877 115.802 147.96 115.34 147.96C114.986 147.96 114.659 147.911 114.359 147.812C114.063 147.709 113.808 147.55 113.593 147.335C113.382 147.116 113.217 146.836 113.096 146.495C112.979 146.15 112.921 145.736 112.921 145.252V140.554H114.856V145.265C114.856 145.48 114.881 145.662 114.93 145.81C114.984 145.957 115.058 146.078 115.152 146.172C115.246 146.267 115.356 146.334 115.481 146.374C115.611 146.414 115.755 146.435 115.912 146.435C116.31 146.435 116.624 146.354 116.852 146.193C117.085 146.031 117.249 145.812 117.343 145.534C117.442 145.252 117.491 144.938 117.491 144.593ZM122.182 140.554V147.826H120.24V140.554H122.182ZM120.119 138.659C120.119 138.377 120.218 138.144 120.415 137.96C120.612 137.777 120.876 137.685 121.208 137.685C121.535 137.685 121.797 137.777 121.994 137.96C122.196 138.144 122.296 138.377 122.296 138.659C122.296 138.941 122.196 139.174 121.994 139.358C121.797 139.542 121.535 139.634 121.208 139.634C120.876 139.634 120.612 139.542 120.415 139.358C120.218 139.174 120.119 138.941 120.119 138.659ZM125.166 142.14V147.826H123.231V140.554H125.052L125.166 142.14ZM127.357 140.507L127.324 142.302C127.23 142.288 127.115 142.277 126.981 142.268C126.851 142.255 126.732 142.248 126.625 142.248C126.351 142.248 126.114 142.284 125.912 142.355C125.715 142.423 125.55 142.523 125.415 142.658C125.285 142.792 125.187 142.956 125.119 143.148C125.057 143.341 125.021 143.561 125.012 143.807L124.622 143.686C124.622 143.216 124.669 142.783 124.763 142.389C124.857 141.99 124.994 141.643 125.173 141.347C125.357 141.052 125.581 140.823 125.845 140.662C126.11 140.501 126.412 140.42 126.752 140.42C126.86 140.42 126.97 140.429 127.082 140.447C127.194 140.46 127.286 140.48 127.357 140.507Z" fill="#6E6E6E"/>
<rect x="207.179" y="123.643" width="351.821" height="37.8487" rx="7.74178" fill="#2B9610"/>
<path d="M458.379 55.5343V70.5264H455.42V58.9458L451.865 60.0761V57.7436L458.061 55.5343H458.379ZM462.675 69.0981C462.675 68.6596 462.826 68.2931 463.128 67.9986C463.436 67.704 463.843 67.5567 464.35 67.5567C464.857 67.5567 465.261 67.704 465.563 67.9986C465.871 68.2931 466.025 68.6596 466.025 69.0981C466.025 69.5365 465.871 69.903 465.563 70.1975C465.261 70.4921 464.857 70.6394 464.35 70.6394C463.843 70.6394 463.436 70.4921 463.128 70.1975C462.826 69.903 462.675 69.5365 462.675 69.0981ZM470.455 63.7137L468.091 63.1485L468.944 55.5652H477.35V57.9594H471.38L471.01 61.2784C471.208 61.1619 471.51 61.0386 471.914 60.9085C472.318 60.7715 472.77 60.7029 473.27 60.7029C473.996 60.7029 474.64 60.816 475.202 61.042C475.764 61.2681 476.24 61.5969 476.63 62.0285C477.028 62.4601 477.329 62.9875 477.535 63.6109C477.74 64.2343 477.843 64.9399 477.843 65.7277C477.843 66.3922 477.74 67.0258 477.535 67.6287C477.329 68.2246 477.017 68.759 476.6 69.2316C476.182 69.6975 475.658 70.064 475.027 70.3311C474.397 70.5983 473.65 70.7319 472.787 70.7319C472.143 70.7319 471.52 70.636 470.917 70.4442C470.321 70.2524 469.783 69.9681 469.304 69.5913C468.831 69.2145 468.451 68.759 468.163 68.2246C467.882 67.6835 467.735 67.0669 467.722 66.375H470.66C470.701 66.7998 470.811 67.1663 470.989 67.4745C471.174 67.7759 471.417 68.0089 471.719 68.1733C472.02 68.3377 472.373 68.4199 472.777 68.4199C473.154 68.4199 473.476 68.348 473.743 68.2041C474.01 68.0602 474.226 67.8616 474.39 67.6081C474.555 67.3478 474.675 67.0464 474.75 66.7039C474.832 66.3545 474.873 65.9777 474.873 65.5736C474.873 65.1694 474.825 64.8029 474.729 64.4741C474.634 64.1453 474.486 63.861 474.288 63.6212C474.089 63.3814 473.835 63.1965 473.527 63.0663C473.226 62.9362 472.873 62.8711 472.469 62.8711C471.921 62.8711 471.496 62.9567 471.195 63.128C470.9 63.2992 470.653 63.4945 470.455 63.7137ZM489.393 64.9365V67.2587H478.614L478.471 65.4605L484.708 55.5652H487.061L484.513 59.8295L481.409 64.9365H489.393ZM487.698 55.5652V70.5264H484.739V55.5652H487.698ZM500.235 66.4264C500.235 67.3649 500.016 68.1561 499.577 68.8001C499.139 69.4372 498.536 69.9201 497.769 70.2489C497.008 70.5709 496.145 70.7319 495.179 70.7319C494.214 70.7319 493.347 70.5709 492.58 70.2489C491.812 69.9201 491.206 69.4372 490.761 68.8001C490.316 68.1561 490.093 67.3649 490.093 66.4264C490.093 65.7962 490.22 65.2276 490.473 64.7207C490.727 64.2069 491.079 63.7685 491.532 63.4054C491.991 63.0355 492.528 62.7546 493.145 62.5628C493.761 62.3642 494.433 62.2648 495.159 62.2648C496.132 62.2648 497.002 62.4361 497.769 62.7786C498.536 63.1211 499.139 63.6041 499.577 64.2275C500.016 64.8508 500.235 65.5838 500.235 66.4264ZM497.255 66.2312C497.255 65.7722 497.166 65.3783 496.988 65.0495C496.817 64.7138 496.573 64.4569 496.258 64.2788C495.943 64.1007 495.577 64.0117 495.159 64.0117C494.741 64.0117 494.374 64.1007 494.059 64.2788C493.744 64.4569 493.498 64.7138 493.32 65.0495C493.148 65.3783 493.063 65.7722 493.063 66.2312C493.063 66.6833 493.148 67.0738 493.32 67.4026C493.498 67.7314 493.744 67.9849 494.059 68.163C494.381 68.3343 494.755 68.4199 495.179 68.4199C495.604 68.4199 495.971 68.3343 496.279 68.163C496.594 67.9849 496.834 67.7314 496.998 67.4026C497.169 67.0738 497.255 66.6833 497.255 66.2312ZM499.916 59.5315C499.916 60.2919 499.714 60.9667 499.31 61.5558C498.906 62.1381 498.344 62.5936 497.625 62.9225C496.913 63.2513 496.097 63.4157 495.179 63.4157C494.255 63.4157 493.433 63.2513 492.713 62.9225C491.994 62.5936 491.432 62.1381 491.028 61.5558C490.624 60.9667 490.422 60.2919 490.422 59.5315C490.422 58.6273 490.624 57.8669 491.028 57.2504C491.439 56.627 492.001 56.1543 492.713 55.8323C493.433 55.5104 494.248 55.3494 495.159 55.3494C496.084 55.3494 496.902 55.5104 497.615 55.8323C498.334 56.1543 498.896 56.627 499.3 57.2504C499.711 57.8669 499.916 58.6273 499.916 59.5315ZM496.957 59.6651C496.957 59.2609 496.885 58.9116 496.741 58.617C496.597 58.3156 496.392 58.0827 496.125 57.9183C495.864 57.7539 495.542 57.6717 495.159 57.6717C494.789 57.6717 494.47 57.7504 494.203 57.908C493.943 58.0656 493.741 58.295 493.597 58.5965C493.46 58.891 493.391 59.2472 493.391 59.6651C493.391 60.0693 493.46 60.4255 493.597 60.7338C493.741 61.0352 493.946 61.2715 494.214 61.4428C494.481 61.614 494.803 61.6997 495.179 61.6997C495.556 61.6997 495.875 61.614 496.135 61.4428C496.402 61.2715 496.604 61.0352 496.741 60.7338C496.885 60.4255 496.957 60.0693 496.957 59.6651ZM504.325 68.0294L504.315 70.0126C504.315 70.773 504.123 71.5402 503.74 72.3143C503.363 73.0884 502.883 73.7221 502.301 74.2153L500.76 73.4241C500.931 73.109 501.099 72.7938 501.263 72.4787C501.428 72.1636 501.565 71.8177 501.674 71.4409C501.784 71.0641 501.839 70.636 501.839 70.1564V68.0294H504.325ZM507.83 68.276H508.025C508.848 68.276 509.553 68.1767 510.142 67.978C510.738 67.7725 511.228 67.478 511.612 67.0943C511.995 66.7107 512.28 66.2415 512.465 65.6866C512.649 65.1249 512.742 64.4878 512.742 63.7753V60.9393C512.742 60.3981 512.687 59.922 512.578 59.511C512.475 59.1 512.324 58.7609 512.125 58.4937C511.934 58.2197 511.708 58.0142 511.447 57.8772C511.194 57.7402 510.913 57.6717 510.605 57.6717C510.276 57.6717 509.985 57.7539 509.731 57.9183C509.478 58.0758 509.262 58.2916 509.084 58.5656C508.913 58.8396 508.779 59.1548 508.683 59.511C508.594 59.8604 508.55 60.2268 508.55 60.6105C508.55 60.9941 508.594 61.3606 508.683 61.7099C508.772 62.0525 508.906 62.3573 509.084 62.6245C509.262 62.8848 509.485 63.0937 509.752 63.2513C510.019 63.402 510.334 63.4773 510.697 63.4773C511.046 63.4773 511.358 63.4123 511.632 63.2821C511.913 63.1451 512.149 62.967 512.341 62.7478C512.54 62.5286 512.691 62.2854 512.793 62.0182C512.903 61.7511 512.958 61.4805 512.958 61.2064L513.934 61.7408C513.934 62.2203 513.831 62.693 513.626 63.1588C513.42 63.6246 513.132 64.0493 512.763 64.433C512.399 64.8097 511.978 65.1112 511.499 65.3372C511.019 65.5633 510.505 65.6763 509.957 65.6763C509.259 65.6763 508.639 65.5496 508.097 65.2961C507.556 65.0358 507.097 64.6796 506.72 64.2275C506.351 63.7685 506.07 63.2342 505.878 62.6245C505.686 62.0148 505.59 61.3537 505.59 60.6413C505.59 59.9152 505.707 59.2335 505.94 58.5965C506.179 57.9594 506.518 57.3976 506.957 56.9113C507.402 56.4249 507.933 56.0447 508.55 55.7707C509.173 55.4898 509.865 55.3494 510.625 55.3494C511.386 55.3494 512.077 55.4967 512.701 55.7912C513.324 56.0858 513.859 56.5037 514.304 57.0449C514.749 57.5792 515.092 58.2197 515.331 58.9664C515.578 59.7131 515.701 60.542 515.701 61.4531V62.4806C515.701 63.4534 515.595 64.3576 515.383 65.1934C515.177 66.0291 514.866 66.7861 514.448 67.4643C514.037 68.1356 513.523 68.711 512.906 69.1905C512.297 69.6701 511.588 70.0366 510.779 70.29C509.971 70.5435 509.067 70.6702 508.067 70.6702H507.83V68.276ZM519.761 63.7137L517.398 63.1485L518.25 55.5652H526.656V57.9594H520.686L520.316 61.2784C520.515 61.1619 520.816 61.0386 521.22 60.9085C521.624 60.7715 522.076 60.7029 522.576 60.7029C523.303 60.7029 523.947 60.816 524.508 61.042C525.07 61.2681 525.546 61.5969 525.937 62.0285C526.334 62.4601 526.635 62.9875 526.841 63.6109C527.046 64.2343 527.149 64.9399 527.149 65.7277C527.149 66.3922 527.046 67.0258 526.841 67.6287C526.635 68.2246 526.324 68.759 525.906 69.2316C525.488 69.6975 524.964 70.064 524.334 70.3311C523.703 70.5983 522.957 70.7319 522.094 70.7319C521.45 70.7319 520.826 70.636 520.223 70.4442C519.627 70.2524 519.09 69.9681 518.61 69.5913C518.137 69.2145 517.757 68.759 517.47 68.2246C517.189 67.6835 517.041 67.0669 517.028 66.375H519.966C520.008 66.7998 520.117 67.1663 520.295 67.4745C520.48 67.7759 520.723 68.0089 521.025 68.1733C521.326 68.3377 521.679 68.4199 522.083 68.4199C522.46 68.4199 522.782 68.348 523.049 68.2041C523.316 68.0602 523.532 67.8616 523.697 67.6081C523.861 67.3478 523.981 67.0464 524.056 66.7039C524.138 66.3545 524.179 65.9777 524.179 65.5736C524.179 65.1694 524.132 64.8029 524.036 64.4741C523.94 64.1453 523.792 63.861 523.594 63.6212C523.395 63.3814 523.142 63.1965 522.833 63.0663C522.532 62.9362 522.179 62.8711 521.775 62.8711C521.227 62.8711 520.802 62.9567 520.501 63.128C520.206 63.2992 519.96 63.4945 519.761 63.7137Z" fill="black"/>
<path d="M354.378 146.253V147.826H349.169V146.253H354.378ZM349.828 138.041V147.826H347.812V138.041H349.828ZM353.699 142.026V143.558H349.169V142.026H353.699ZM354.371 138.041V139.62H349.169V138.041H354.371ZM356.818 142.06V147.826H354.875V140.554H356.697L356.818 142.06ZM356.549 143.935H356.011C356.011 143.428 356.072 142.962 356.193 142.537C356.318 142.107 356.499 141.735 356.737 141.421C356.979 141.103 357.277 140.857 357.631 140.682C357.985 140.507 358.395 140.42 358.861 140.42C359.183 140.42 359.479 140.469 359.748 140.568C360.016 140.662 360.247 140.812 360.44 141.018C360.637 141.22 360.789 141.484 360.897 141.811C361.004 142.134 361.058 142.521 361.058 142.974V147.826H359.123V143.189C359.123 142.857 359.078 142.602 358.988 142.423C358.899 142.243 358.771 142.118 358.605 142.046C358.444 141.975 358.249 141.939 358.021 141.939C357.77 141.939 357.55 141.99 357.362 142.093C357.178 142.196 357.026 142.34 356.905 142.523C356.784 142.703 356.694 142.913 356.636 143.155C356.578 143.397 356.549 143.657 356.549 143.935ZM360.877 143.713L360.184 143.8C360.184 143.325 360.243 142.884 360.359 142.476C360.48 142.069 360.657 141.71 360.89 141.401C361.128 141.092 361.421 140.852 361.77 140.682C362.12 140.507 362.523 140.42 362.98 140.42C363.33 140.42 363.648 140.471 363.934 140.574C364.221 140.673 364.465 140.832 364.667 141.052C364.873 141.267 365.03 141.549 365.137 141.898C365.249 142.248 365.305 142.676 365.305 143.182V147.826H363.363V143.182C363.363 142.846 363.318 142.591 363.229 142.416C363.144 142.237 363.018 142.113 362.852 142.046C362.691 141.975 362.498 141.939 362.274 141.939C362.041 141.939 361.838 141.986 361.663 142.08C361.488 142.169 361.343 142.295 361.226 142.456C361.11 142.617 361.022 142.806 360.964 143.021C360.906 143.231 360.877 143.462 360.877 143.713ZM368.296 140.554V147.826H366.354V140.554H368.296ZM366.233 138.659C366.233 138.377 366.332 138.144 366.529 137.96C366.726 137.777 366.99 137.685 367.322 137.685C367.649 137.685 367.911 137.777 368.108 137.96C368.31 138.144 368.411 138.377 368.411 138.659C368.411 138.941 368.31 139.174 368.108 139.358C367.911 139.542 367.649 139.634 367.322 139.634C366.99 139.634 366.726 139.542 366.529 139.358C366.332 139.174 366.233 138.941 366.233 138.659ZM372.907 140.554V141.925H368.673V140.554H372.907ZM369.722 138.76H371.657V145.635C371.657 145.845 371.684 146.007 371.738 146.119C371.796 146.231 371.881 146.309 371.993 146.354C372.105 146.394 372.246 146.414 372.416 146.414C372.537 146.414 372.645 146.41 372.739 146.401C372.838 146.388 372.92 146.374 372.988 146.361L372.994 147.785C372.829 147.839 372.649 147.882 372.457 147.913C372.264 147.944 372.051 147.96 371.818 147.96C371.393 147.96 371.021 147.891 370.703 147.752C370.389 147.608 370.147 147.38 369.977 147.066C369.807 146.753 369.722 146.34 369.722 145.83V138.76ZM375.502 140.554V147.826H373.559V140.554H375.502ZM373.438 138.659C373.438 138.377 373.537 138.144 373.734 137.96C373.931 137.777 374.196 137.685 374.527 137.685C374.854 137.685 375.116 137.777 375.313 137.96C375.515 138.144 375.616 138.377 375.616 138.659C375.616 138.941 375.515 139.174 375.313 139.358C375.116 139.542 374.854 139.634 374.527 139.634C374.196 139.634 373.931 139.542 373.734 139.358C373.537 139.174 373.438 138.941 373.438 138.659ZM378.486 142.14V147.826H376.551V140.554H378.372L378.486 142.14ZM380.677 140.507L380.643 142.302C380.549 142.288 380.435 142.277 380.3 142.268C380.17 142.255 380.052 142.248 379.944 142.248C379.671 142.248 379.434 142.284 379.232 142.355C379.035 142.423 378.869 142.523 378.735 142.658C378.605 142.792 378.506 142.956 378.439 143.148C378.376 143.341 378.34 143.561 378.331 143.807L377.942 143.686C377.942 143.216 377.989 142.783 378.083 142.389C378.177 141.99 378.313 141.643 378.493 141.347C378.676 141.052 378.9 140.823 379.165 140.662C379.429 140.501 379.731 140.42 380.072 140.42C380.179 140.42 380.289 140.429 380.401 140.447C380.513 140.46 380.605 140.48 380.677 140.507ZM392.002 138.041V147.826H389.985L386.054 141.267V147.826H384.038V138.041H386.054L389.992 144.607V138.041H392.002ZM395.221 138.041V147.826H393.205V138.041H395.221ZM399.119 142.221V143.794H394.67V142.221H399.119ZM399.589 138.041V139.62H394.67V138.041H399.589ZM405.88 144.58H407.889C407.849 145.238 407.668 145.823 407.345 146.334C407.027 146.845 406.581 147.243 406.008 147.53C405.439 147.817 404.753 147.96 403.951 147.96C403.324 147.96 402.762 147.853 402.264 147.638C401.767 147.418 401.342 147.104 400.988 146.697C400.638 146.289 400.372 145.796 400.188 145.218C400.004 144.64 399.912 143.993 399.912 143.276V142.597C399.912 141.88 400.006 141.233 400.195 140.655C400.387 140.073 400.661 139.578 401.015 139.17C401.373 138.762 401.801 138.449 402.298 138.229C402.795 138.01 403.351 137.9 403.965 137.9C404.78 137.9 405.468 138.048 406.028 138.343C406.592 138.639 407.029 139.047 407.338 139.566C407.652 140.086 407.84 140.678 407.903 141.341H405.887C405.864 140.946 405.786 140.613 405.652 140.339C405.517 140.062 405.313 139.853 405.04 139.714C404.771 139.571 404.413 139.499 403.965 139.499C403.629 139.499 403.335 139.562 403.084 139.687C402.833 139.813 402.623 140.003 402.453 140.259C402.282 140.514 402.155 140.837 402.07 141.226C401.989 141.612 401.949 142.064 401.949 142.584V143.276C401.949 143.782 401.987 144.228 402.063 144.613C402.139 144.994 402.256 145.317 402.412 145.581C402.574 145.841 402.78 146.038 403.031 146.172C403.286 146.302 403.593 146.367 403.951 146.367C404.372 146.367 404.72 146.3 404.993 146.166C405.266 146.031 405.475 145.832 405.618 145.568C405.766 145.303 405.853 144.974 405.88 144.58ZM412.359 142.866V144.385H408.562V142.866H412.359ZM416.768 147.96C416.203 147.96 415.697 147.87 415.249 147.691C414.801 147.508 414.42 147.254 414.107 146.932C413.798 146.609 413.56 146.235 413.394 145.81C413.229 145.379 413.146 144.923 413.146 144.439V144.17C413.146 143.619 413.224 143.115 413.381 142.658C413.538 142.201 413.762 141.804 414.053 141.468C414.349 141.132 414.707 140.875 415.128 140.695C415.549 140.512 416.024 140.42 416.553 140.42C417.068 140.42 417.525 140.505 417.924 140.675C418.323 140.846 418.656 141.087 418.925 141.401C419.198 141.715 419.405 142.091 419.543 142.53C419.682 142.965 419.752 143.449 419.752 143.982V144.788H413.972V143.498H417.85V143.35C417.85 143.081 417.801 142.841 417.702 142.631C417.608 142.416 417.465 142.246 417.272 142.12C417.079 141.995 416.833 141.932 416.533 141.932C416.277 141.932 416.058 141.988 415.874 142.1C415.69 142.212 415.54 142.369 415.424 142.57C415.312 142.772 415.227 143.009 415.169 143.283C415.115 143.552 415.088 143.847 415.088 144.17V144.439C415.088 144.73 415.128 144.999 415.209 145.245C415.294 145.492 415.413 145.704 415.565 145.884C415.722 146.063 415.91 146.202 416.13 146.3C416.354 146.399 416.607 146.448 416.889 146.448C417.238 146.448 417.563 146.381 417.863 146.246C418.168 146.108 418.43 145.899 418.65 145.621L419.59 146.643C419.438 146.862 419.23 147.073 418.965 147.275C418.706 147.476 418.392 147.642 418.025 147.772C417.657 147.897 417.238 147.96 416.768 147.96Z" fill="white"/>
<defs>
<linearGradient id="paint0_linear_158_18" x1="727.058" y1="275.609" x2="590.346" y2="275.366" gradientUnits="userSpaceOnUse">
<stop stop-color="white"/>
<stop offset="0.496969" stop-color="white" stop-opacity="0.563514"/>
<stop offset="1" stop-color="white" stop-opacity="0"/>
</linearGradient>
</defs>
</svg>
