<svg width="55" height="55" viewBox="0 0 55 55" fill="none" xmlns="http://www.w3.org/2000/svg">
<path fill-rule="evenodd" clip-rule="evenodd" d="M19.9959 3.85503C20.8388 6.0529 21.324 8.28781 21.324 8.93906C21.324 11.0105 23.2779 11.5733 31.9421 11.8166C45.1933 12.2577 49.5594 16.3797 53.1489 24.2924C56.6759 32.0673 55.0572 42.1804 49.1933 49.0095C46.8167 51.7758 41.8887 54.475 38.3866 54.9274C36.2777 55.2003 36.0249 54.8987 34.6933 50.5334C32.5283 43.4324 32.5571 43.4507 23.5011 43.4507C19.11 43.4507 14.324 43.0017 12.8645 42.4525C2.9874 38.7376 -1.8668 26.2317 0.661981 14.6574C1.85111 9.21464 5.60439 5.40251 10.7416 2.5342C17.2486 -1.09782 18.1438 -0.969653 19.9959 3.85503ZM13.5482 13.9612C8.84343 17.6752 9.00577 25.3691 13.8846 29.9549C15.7758 31.7325 17.0206 32.117 20.8825 32.117C27.1803 32.117 29.7302 33.8624 31.3388 39.2738C32.5603 43.3801 32.636 43.4499 35.8352 43.4228C42.8674 43.3627 47.2632 34.7569 43.5098 28.3978C41.1472 24.3952 39.4294 23.4563 34.4069 23.4232C28.4135 23.3839 25.1729 21.3203 23.8648 16.7092C23.3434 14.874 22.3483 12.8714 21.6529 12.2577C20.0942 10.8837 16.4852 11.6422 13.5482 13.9612Z" fill="white"/>
</svg>
